<?xml version="1.0"?>
<svg xmlns="http://www.w3.org/2000/svg" viewBox="0 0 64 64" width="512px" height="512px" class=""><g><g id="Action_camera-2" data-name="Action camera"><path d="M51,8a3,3,0,0,0-3-3H22a3,3,0,0,0-3-3H15a3,3,0,0,0-3,3V8.1A5.009,5.009,0,0,0,8,13v1a3,3,0,0,0-3,3v4a3,3,0,0,0,3,3V41a5.006,5.006,0,0,0,5,5H23v3a1,1,0,0,0,1,1h2v2H17a5,5,0,1,0,0,6h9v3a1,1,0,0,0,1,1H37a1,1,0,0,0,1-1V50h2a1,1,0,0,0,1-1V46H51a5.006,5.006,0,0,0,5-5V13A5.006,5.006,0,0,0,51,8ZM48,7a1,1,0,0,1,1,1H22V7ZM14,5a1,1,0,0,1,1-1h4a1,1,0,0,1,1,1V8H14ZM7,21V17a1,1,0,0,1,1-1v6A1,1,0,0,1,7,21Zm9.46,35a1,1,0,0,0-.867.5,3,3,0,1,1,0-3,1,1,0,0,0,.867.5H26v2ZM36,60H28V50h8Zm3-12H25V46H39Zm15-7a3,3,0,0,1-3,3H13a3,3,0,0,1-3-3V13a3,3,0,0,1,3-3H51a3,3,0,0,1,3,3Z" data-original="#000000" class="active-path" data-old_color="#000000" fill="#FFFFFF"/><path d="M49,12H35a3,3,0,0,0-3,3V27a3,3,0,0,0,3,3H49a3,3,0,0,0,3-3V15A3,3,0,0,0,49,12Zm1,15a1,1,0,0,1-1,1H35a1,1,0,0,1-1-1V15a1,1,0,0,1,1-1H49a1,1,0,0,1,1,1Z" data-original="#000000" class="active-path" data-old_color="#000000" fill="#FFFFFF"/><path d="M42,15a6,6,0,1,0,6,6A6.006,6.006,0,0,0,42,15Zm0,10a4,4,0,1,1,4-4A4,4,0,0,1,42,25Z" data-original="#000000" class="active-path" data-old_color="#000000" fill="#FFFFFF"/><path d="M42,18a3,3,0,1,0,3,3A3,3,0,0,0,42,18Zm0,4a1,1,0,1,1,1-1A1,1,0,0,1,42,22Z" data-original="#000000" class="active-path" data-old_color="#000000" fill="#FFFFFF"/><path d="M30,23V13a1,1,0,0,0-1-1H13a1,1,0,0,0-1,1V23a1,1,0,0,0,1,1H29A1,1,0,0,0,30,23ZM14,14h9.956v8H14Zm14,8H25.956V14H28Z" data-original="#000000" class="active-path" data-old_color="#000000" fill="#FFFFFF"/><path d="M21,34H17a3,3,0,0,0,0,6h4a3,3,0,0,0,0-6Zm0,4H17a1,1,0,0,1,0-2h4a1,1,0,0,1,0,2Z" data-original="#000000" class="active-path" data-old_color="#000000" fill="#FFFFFF"/><path d="M33,34H29a3,3,0,0,0,0,6h4a3,3,0,0,0,0-6Zm0,4H29a1,1,0,0,1,0-2h4a1,1,0,0,1,0,2Z" data-original="#000000" class="active-path" data-old_color="#000000" fill="#FFFFFF"/><path d="M43,36H41a1,1,0,0,0,0,2h2a1,1,0,0,0,0-2Z" data-original="#000000" class="active-path" data-old_color="#000000" fill="#FFFFFF"/><path d="M49,36H47a1,1,0,0,0,0,2h2a1,1,0,0,0,0-2Z" data-original="#000000" class="active-path" data-old_color="#000000" fill="#FFFFFF"/></g></g> </svg>
