<?xml version="1.0"?>
<svg xmlns="http://www.w3.org/2000/svg" xmlns:xlink="http://www.w3.org/1999/xlink" version="1.1" id="Layer_1" x="0px" y="0px" viewBox="0 0 512 512" style="enable-background:new 0 0 512 512;" xml:space="preserve" width="512px" height="512px"><g><g>
	<g>
		<path d="M256,0C145.528,0,55.652,89.876,55.652,200.348c0,53.69,21.379,114.278,57.192,162.072    c18.636,24.872,39.836,44.694,63.013,58.919c14.498,8.899,29.36,15.332,44.451,19.265l-10.975,10.974    C187.081,473.83,202.866,512,234.361,512h48.115c29.688,0,44.621-35.992,23.611-57.002l-14.394-14.394    c15.091-3.931,29.952-10.366,44.451-19.265c23.177-14.224,44.377-34.047,63.013-58.919    c35.812-47.794,57.192-108.383,57.192-162.072C456.348,89.876,366.472,0,256,0z M278.904,478.609h-44.543    c-0.467,0-1.339,0-1.851-1.237c-0.717-1.731-1.808,0.058,23.49-25.239l23.951,23.952    C280.882,477.016,280.222,478.609,278.904,478.609z M256.004,411.826c-0.003,0-0.006,0-0.008,0    c-91.439-0.003-166.953-119.149-166.953-211.478c0-92.06,74.897-166.957,166.956-166.957s166.957,74.897,166.957,166.957    C422.957,292.76,347.374,411.822,256.004,411.826z" data-original="#000000" class="active-path" data-old_color="#000000" fill="#FFFFFF"/>
	</g>
</g><g>
	<g>
		<path d="M256,66.783c-9.22,0-16.696,7.475-16.696,16.696s7.475,16.696,16.696,16.696c55.236,0,100.174,44.938,100.174,100.174    c0,9.22,7.475,16.696,16.696,16.696s16.696-7.475,16.696-16.696C389.565,126.7,329.648,66.783,256,66.783z" data-original="#000000" class="active-path" data-old_color="#000000" fill="#FFFFFF"/>
	</g>
</g></g> </svg>
