<?xml version="1.0"?>
<svg xmlns="http://www.w3.org/2000/svg" id="Out_line" height="512px" viewBox="0 0 512 512" width="512px" data-name="Out line"><g><path d="m440 72h-304a8.00035 8.00035 0 0 0 -5.65674 2.34277l-24 24a8.00034 8.00034 0 0 0 0 11.31446l61.52051 61.5205-4.63232 52.11427 15.9375 1.416 12.15136-136.708h201.35938l26.707 300.458a40.00026 40.00026 0 0 1 -39.84269 43.542h-35.544v16h35.544a56.00033 56.00033 0 0 0 55.78027-60.958l-23.73711-267.042h12.41284a24.02718 24.02718 0 0 1 24 24v160a24 24 0 0 0 48 0v-176a56.06322 56.06322 0 0 0 -56-56zm-316.68652 32 16-16h35.94372l-5.54626 62.397zm356.68652 200a8 8 0 0 1 -16 0v-160a40.04552 40.04552 0 0 0 -40-40h-13.835l-1.4222-16h31.2572a40.04552 40.04552 0 0 1 40 40z" data-original="#000000" class="active-path" data-old_color="#000000" fill="#FFFFFF"/><path d="m328 400h-74.81494a72.58407 72.58407 0 0 0 14.64807-16h20.16687a64 64 0 0 0 0-128h-8v-8a8.00008 8.00008 0 0 0 -8-8h-192a8.00008 8.00008 0 0 0 -8 8v96a71.88434 71.88434 0 0 0 26.81494 56h-74.81494a8.00008 8.00008 0 0 0 -8 8 40.04552 40.04552 0 0 0 40 40h240a40.04552 40.04552 0 0 0 40-40 8.00008 8.00008 0 0 0 -8-8zm-40-128a48 48 0 0 1 0 96h-12.1283a71.41713 71.41713 0 0 0 3.67322-16h8.45508a32 32 0 0 0 0-64h-8v-16zm-8 64v-32h8a16 16 0 0 1 0 32zm-192 8v-88h176v88a56.06322 56.06322 0 0 1 -56 56h-64a56.06322 56.06322 0 0 1 -56-56zm208 88h-240a24.04118 24.04118 0 0 1 -22.62891-16h285.25782a24.04118 24.04118 0 0 1 -22.62891 16z" data-original="#000000" class="active-path" data-old_color="#000000" fill="#FFFFFF"/></g> </svg>
