<?xml version="1.0"?>
<svg xmlns="http://www.w3.org/2000/svg" height="512px" viewBox="-18 0 493 493.60123" width="512px" class=""><g><path d="m320.300781 0c-47.816406-.203125-92.230469 24.699219-117 65.601562h-103.699219c-2.648437-.0625-5.210937.945313-7.101562 2.800782l-89.097656 89.199218c-1.933594 1.820313-3.054688 4.34375-3.101563 7v278.800782c0 27.597656 22.800781 50.199218 50.398438 50.199218h239.300781c27.695312-.117187 50.128906-22.507812 50.300781-50.199218v-169.902344c66-9.597656 117.699219-66.898438 117.699219-136 0-75.898438-61.800781-137.5-137.699219-137.5zm-231 99.402344v31.097656c.109375 13.199219-10.5 23.992188-23.699219 24.101562h-30.800781zm200.699219 374.199218h-239.300781c-16.5 0-30.398438-13.699218-30.398438-30.199218v-268.800782h45.300781c11.648438-.035156 22.804688-4.707031 31.003907-12.980468 8.199219-8.273438 12.765625-19.472656 12.695312-31.121094v-44.898438h83.800781c-19.546874 47.5-10.859374 101.941407 22.5 141h-90.101562c-5.523438 0-10 4.476563-10 10 0 5.523438 4.476562 10 10 10h111.101562c23.097657 18 51.597657 28.199219 83.597657 28.300782v168.5c.101562 16.5-13.699219 30.199218-30.199219 30.199218zm30.300781-218.699218c-64.867187-.066406-117.433593-52.636719-117.5-117.5 0-64.800782 52.699219-117.601563 117.5-117.601563 64.867188.066407 117.433594 52.632813 117.5 117.5 0 64.800781-52.601562 117.601563-117.5 117.601563zm0 0" data-original="#000000" class="active-path" data-old_color="#000000" fill="#FFFFFF"/><path d="m365.101562 167.902344c8.777344-11.714844 13.515626-25.960938 13.5-40.601563 0-37.71875-30.578124-68.300781-68.300781-68.300781-37.722656 0-68.300781 30.582031-68.300781 68.300781 0 37.722657 30.578125 68.300781 68.300781 68.300781 14.640625.03125 28.894531-4.707031 40.601563-13.5l30.699218 30.699219c1.875 1.890625 4.4375 2.9375 7.097657 2.902344 2.65625-.011719 5.199219-1.050781 7.101562-2.902344 1.871094-1.867187 2.925781-4.40625 2.925781-7.050781s-1.054687-5.179688-2.925781-7.046875zm-103.101562-40.601563c.003906-21.726562 14.515625-40.777343 35.460938-46.550781 20.949218-5.777344 43.171874 3.144531 54.308593 21.800781 11.140625 18.65625 8.453125 42.449219-6.570312 58.152344-.289063.203125-.558594.4375-.796875.699219-.257813.242187-.492188.511718-.703125.800781-13.976563 13.367187-34.582031 17.113281-52.367188 9.515625-17.789062-7.597656-29.328125-25.074219-29.332031-44.417969zm0 0" data-original="#000000" class="active-path" data-old_color="#000000" fill="#FFFFFF"/><path d="m85.101562 226.601562h-29.5c-5.523437 0-10 4.476563-10 10 0 5.523438 4.476563 10 10 10h29.5c5.523438 0 10-4.476562 10-10 0-5.523437-4.476562-10-10-10zm0 0" data-original="#000000" class="active-path" data-old_color="#000000" fill="#FFFFFF"/><path d="m285.101562 306.601562h-159.5c-5.523437 0-10 4.476563-10 10 0 5.523438 4.476563 10 10 10h159.5c5.523438 0 10-4.476562 10-10 0-5.523437-4.476562-10-10-10zm0 0" data-original="#000000" class="active-path" data-old_color="#000000" fill="#FFFFFF"/><path d="m85.101562 306.601562h-29.5c-5.523437 0-10 4.476563-10 10 0 5.523438 4.476563 10 10 10h29.5c5.523438 0 10-4.476562 10-10 0-5.523437-4.476562-10-10-10zm0 0" data-original="#000000" class="active-path" data-old_color="#000000" fill="#FFFFFF"/><path d="m285.101562 386.601562h-159.5c-5.523437 0-10 4.476563-10 10 0 5.523438 4.476563 10 10 10h159.5c5.523438 0 10-4.476562 10-10 0-5.523437-4.476562-10-10-10zm0 0" data-original="#000000" class="active-path" data-old_color="#000000" fill="#FFFFFF"/><path d="m85.101562 386.601562h-29.5c-5.523437 0-10 4.476563-10 10 0 5.523438 4.476563 10 10 10h29.5c5.523438 0 10-4.476562 10-10 0-5.523437-4.476562-10-10-10zm0 0" data-original="#000000" class="active-path" data-old_color="#000000" fill="#FFFFFF"/></g> </svg>
