<?xml version="1.0"?>
<svg xmlns="http://www.w3.org/2000/svg" xmlns:xlink="http://www.w3.org/1999/xlink" version="1.1" id="Layer_1" x="0px" y="0px" viewBox="0 0 512 512" style="enable-background:new 0 0 512 512;" xml:space="preserve" width="512px" height="512px"><g><g>
	<g>
		<g>
			<path d="M324.267,119.735c4.71,0,8.533-3.823,8.533-8.533v-51.2c0-4.71-3.823-8.533-8.533-8.533s-8.533,3.823-8.533,8.533v51.2     C315.733,115.913,319.556,119.735,324.267,119.735z" data-original="#000000" class="active-path" data-old_color="#000000" fill="#FFFFFF"/>
			<path d="M324.267,222.135c-4.71,0-8.533,3.823-8.533,8.533c0,4.71,3.823,8.533,8.533,8.533c9.412,0,17.067,7.654,17.067,17.067     c0,4.71,3.823,8.533,8.533,8.533s8.533-3.823,8.533-8.533C358.4,237.444,343.091,222.135,324.267,222.135z" data-original="#000000" class="active-path" data-old_color="#000000" fill="#FFFFFF"/>
			<path d="M266.633,122.876c1.263,3.456,4.531,5.615,8.021,5.615c0.964,0,1.954-0.171,2.918-0.521     c4.42-1.613,6.707-6.511,5.094-10.94l-17.519-48.111c-1.604-4.429-6.502-6.724-10.931-5.094     c-4.429,1.613-6.716,6.502-5.103,10.931L266.633,122.876z" data-original="#000000" class="active-path" data-old_color="#000000" fill="#FFFFFF"/>
			<path d="M370.961,127.97c0.964,0.35,1.954,0.521,2.918,0.521c3.49,0,6.758-2.159,8.021-5.615l17.519-48.111     c1.613-4.429-0.666-9.327-5.103-10.94c-4.437-1.613-9.327,0.674-10.931,5.094l-17.519,48.111     C364.254,121.459,366.532,126.357,370.961,127.97z" data-original="#000000" class="active-path" data-old_color="#000000" fill="#FFFFFF"/>
			<path d="M324.267,188.002c-37.641,0-68.267,30.626-68.267,68.267c0,37.641,30.626,68.267,68.267,68.267     c37.641,0,68.267-30.626,68.267-68.267C392.533,218.628,361.907,188.002,324.267,188.002z M324.267,307.469     c-28.237,0-51.2-22.963-51.2-51.2c0-28.237,22.963-51.2,51.2-51.2c28.237,0,51.2,22.963,51.2,51.2     C375.467,284.506,352.503,307.469,324.267,307.469z" data-original="#000000" class="active-path" data-old_color="#000000" fill="#FFFFFF"/>
			<path d="M412.032,151.684c1.596,1.34,3.541,1.997,5.478,1.997c2.432,0,4.855-1.041,6.545-3.046l32.913-39.211     c3.029-3.61,2.56-8.994-1.05-12.023c-3.61-3.021-8.986-2.56-12.023,1.05l-32.913,39.202     C407.953,143.262,408.422,148.646,412.032,151.684z" data-original="#000000" class="active-path" data-old_color="#000000" fill="#FFFFFF"/>
			<path d="M324.267,153.869c-56.465,0-102.4,45.935-102.4,102.4s45.935,102.4,102.4,102.4c56.465,0,102.4-45.935,102.4-102.4     S380.732,153.869,324.267,153.869z M324.267,341.602c-47.053,0-85.333-38.281-85.333-85.333s38.281-85.333,85.333-85.333     s85.333,38.281,85.333,85.333S371.319,341.602,324.267,341.602z" data-original="#000000" class="active-path" data-old_color="#000000" fill="#FFFFFF"/>
			<path d="M224.478,150.635c1.69,2.005,4.113,3.046,6.545,3.046c1.937,0,3.883-0.657,5.478-1.997     c3.61-3.029,4.079-8.414,1.05-12.032l-32.913-39.219c-3.029-3.601-8.414-4.07-12.023-1.05c-3.61,3.029-4.079,8.414-1.05,12.023     L224.478,150.635z" data-original="#000000" class="active-path" data-old_color="#000000" fill="#FFFFFF"/>
			<path d="M59.733,273.335h102.4c4.71,0,8.533-3.823,8.533-8.533s-3.823-8.533-8.533-8.533h-102.4c-4.71,0-8.533,3.823-8.533,8.533     S55.023,273.335,59.733,273.335z" data-original="#000000" class="active-path" data-old_color="#000000" fill="#FFFFFF"/>
			<path d="M162.389,392.802c4.719,0,8.533-3.823,8.533-8.533s-3.814-8.533-8.533-8.533h-0.085c-4.71,0-8.491,3.823-8.491,8.533     S157.679,392.802,162.389,392.802z" data-original="#000000" class="active-path" data-old_color="#000000" fill="#FFFFFF"/>
			<path d="M94.123,375.736h-0.085c-4.71,0-8.491,3.823-8.491,8.533s3.866,8.533,8.576,8.533c4.719,0,8.533-3.823,8.533-8.533     S98.842,375.736,94.123,375.736z" data-original="#000000" class="active-path" data-old_color="#000000" fill="#FFFFFF"/>
			<path d="M469.333,205.069h-25.6c-4.71,0-8.533,3.823-8.533,8.533s3.823,8.533,8.533,8.533h25.6c12.442,0,25.6,13.158,25.6,25.6     v153.6c0,12.442-13.158,25.6-25.6,25.6H435.2c-4.71,0-8.533,3.823-8.533,8.533v16.529c0,4.719,3.823,8.533,8.533,8.533     s8.533-3.814,8.533-8.533v-7.996h25.6c21.931,0,42.667-20.736,42.667-42.667v-153.6C512,225.805,491.264,205.069,469.333,205.069     z" data-original="#000000" class="active-path" data-old_color="#000000" fill="#FFFFFF"/>
			<path d="M76.8,426.936H42.667c-12.442,0-25.6-13.158-25.6-25.6v-153.6c0-12.442,13.158-25.6,25.6-25.6H204.8     c4.71,0,8.533-3.823,8.533-8.533s-3.823-8.533-8.533-8.533H42.667C20.736,205.069,0,225.805,0,247.735v153.6     c0,21.931,20.736,42.667,42.667,42.667h25.6v7.996c0,4.719,3.823,8.533,8.533,8.533s8.533-3.814,8.533-8.533v-16.529     C85.333,430.758,81.51,426.936,76.8,426.936z" data-original="#000000" class="active-path" data-old_color="#000000" fill="#FFFFFF"/>
			<path d="M401.067,426.936H110.933c-4.71,0-8.533,3.823-8.533,8.533s3.823,8.533,8.533,8.533h290.133     c4.71,0,8.533-3.823,8.533-8.533S405.777,426.936,401.067,426.936z" data-original="#000000" class="active-path" data-old_color="#000000" fill="#FFFFFF"/>
			<path d="M128.171,375.736c-4.71,0-8.491,3.823-8.491,8.533s3.866,8.533,8.576,8.533c4.719,0,8.533-3.823,8.533-8.533     s-3.814-8.533-8.533-8.533H128.171z" data-original="#000000" class="active-path" data-old_color="#000000" fill="#FFFFFF"/>
			<path d="M59.733,307.469h102.4c4.71,0,8.533-3.823,8.533-8.533s-3.823-8.533-8.533-8.533h-102.4c-4.71,0-8.533,3.823-8.533,8.533     S55.023,307.469,59.733,307.469z" data-original="#000000" class="active-path" data-old_color="#000000" fill="#FFFFFF"/>
			<path d="M170.667,333.069c0-4.71-3.823-8.533-8.533-8.533h-102.4c-4.71,0-8.533,3.823-8.533,8.533s3.823,8.533,8.533,8.533h102.4     C166.844,341.602,170.667,337.779,170.667,333.069z" data-original="#000000" class="active-path" data-old_color="#000000" fill="#FFFFFF"/>
			<path d="M59.904,375.736c-4.71,0-8.491,3.823-8.491,8.533s3.866,8.533,8.576,8.533c4.719,0,8.533-3.823,8.533-8.533     s-3.814-8.533-8.533-8.533H59.904z" data-original="#000000" class="active-path" data-old_color="#000000" fill="#FFFFFF"/>
		</g>
	</g>
</g></g> </svg>
