<?xml version="1.0"?>
<svg xmlns="http://www.w3.org/2000/svg" xmlns:xlink="http://www.w3.org/1999/xlink" version="1.1" id="Capa_1" x="0px" y="0px" viewBox="0 0 512.034 512.034" style="enable-background:new 0 0 512.034 512.034;" xml:space="preserve" width="512px" height="512px" class=""><g><g transform="translate(-1)">
	<g>
		<g>
			<path d="M12.401,160.324c3.049,11.234,13.294,18.997,24.934,18.893c1.678,0.001,3.353-0.159,5.001-0.478l51.712-9.916     l39.782-8.73c13.094-2.354,22.1-14.484,20.565-27.699l-4.855-37.231c-0.606-4.634,10.018-9.771,19.925-11.264     c57.431-9.292,115.97-9.444,173.448-0.452c15.795,2.722,19.285,5.257,20.036,6.204c1.587,3.919,1.819,8.256,0.657,12.322     l-3.482,24.747c-1.958,8.001-0.568,16.454,3.849,23.407c6.185,6.535,14.54,10.591,23.501,11.409     c5.973,1.143,10.573,2.295,15.172,3.413c4.881,1.212,9.754,2.423,16.102,3.635l46.259,8.926     c8.045,2.372,16.664,1.871,24.38-1.417c8.121-5.233,13.381-13.914,14.259-23.535l0.282-1.237     c0.896-3.942,2.082-7.851,3.268-11.759c3.377-9.375,5.198-19.239,5.393-29.201c-1.377-17.556-9.47-33.905-22.596-45.645     c-59.085-57.992-161.28-64.7-232.96-64.7C93.391,0.017,31.038,47.121,7.545,86.639c-6.452,10.932-8.224,24.003-4.915,36.258     L12.401,160.324z M22.206,95.377c21.231-35.729,79.206-78.293,234.829-78.293c68.719,0,166.4,6.204,221.013,59.81     c9.928,8.675,16.167,20.815,17.442,33.937c-0.298,8.127-1.876,16.156-4.676,23.791c-1.289,4.267-2.56,8.576-3.567,12.902     l-0.299,1.297c-1.425,6.349-2.56,10.624-5.487,12.151c-4.347,1.184-8.942,1.101-13.244-0.239l-46.225-8.823     c-5.973-1.143-10.59-2.295-15.189-3.413c-4.881-1.212-9.754-2.423-16.085-3.635c-4.087-0.785-10.94-2.091-13.116-4.966     c-1.371-3.412-1.563-7.184-0.546-10.718l3.49-24.747c2.037-8.322,0.751-17.11-3.584-24.499     c-5.513-7.851-18.219-10.991-31.113-13.218c-59.284-9.303-119.667-9.171-178.91,0.393c-18.671,2.833-36.514,13.312-34.295,30.353     l4.864,37.222c0.352,4.344-2.755,8.205-7.074,8.789l-39.799,8.644l-51.507,9.865c-4.452,1.005-8.923-1.603-10.24-5.973     l-9.737-37.376C16.999,110.784,18.1,102.401,22.206,95.377z" data-original="#000000" class="active-path" data-old_color="#000000" fill="#DCA600"/>
			<path d="M511.498,389.572c-0.085-0.222-0.171-0.435-0.265-0.631c-0.797-2.121-1.867-4.129-3.183-5.973l-108.467-147.2     c-6.45-8.715-16.643-13.864-27.486-13.884h-22.187l-7.543-60.356c-0.335-9.182-7.879-16.45-17.067-16.444h-25.6     c-9.426,0-17.067,7.641-17.067,17.067v68.267c0,4.713,3.82,8.533,8.533,8.533s8.533-3.82,8.533-8.533v-68.267h25.6     c-0.003,0.354,0.02,0.708,0.068,1.058l8.533,68.267c0.534,4.27,4.162,7.474,8.465,7.475h29.73     c5.419,0.009,10.515,2.582,13.739,6.938l101.777,138.129h-68.446c-4.713,0-8.533,3.821-8.533,8.533     c0,4.713,3.82,8.533,8.533,8.533h76.8v68.267c0,14.138-11.461,25.6-25.6,25.6H43.701c-14.138,0-25.6-11.461-25.6-25.6v-68.267     h358.4c4.713,0,8.533-3.821,8.533-8.533c0-4.713-3.82-8.533-8.533-8.533H26.455l101.777-138.129     c3.224-4.356,8.319-6.929,13.739-6.938h29.73c4.303-0.001,7.932-3.206,8.465-7.475l8.533-68.267     c0.048-0.351,0.071-0.704,0.068-1.058h25.6v68.267c0,4.713,3.82,8.533,8.533,8.533h34.133c4.713,0,8.533-3.82,8.533-8.533     s-3.82-8.533-8.533-8.533h-25.6v-59.733c0-9.426-7.641-17.067-17.067-17.067h-25.6c-9.188-0.006-16.731,7.262-17.067,16.444     l-7.535,60.356h-22.187c-10.83,0.03-21.009,5.178-27.452,13.884L6.018,382.976c-1.323,1.84-2.393,3.849-3.183,5.973     c-0.094,0.188-0.179,0.401-0.265,0.614c-0.999,2.756-1.518,5.662-1.536,8.593v71.194c0.028,23.552,19.114,42.638,42.667,42.667     h426.667c23.552-0.028,42.638-19.114,42.667-42.667v-71.194C513.017,395.229,512.498,392.325,511.498,389.572z" data-original="#000000" class="active-path" data-old_color="#000000" fill="#DCA600"/>
			<path d="M200.8,285.773c7.859-4.194,16.254-7.298,24.951-9.225c20.602-4.599,41.965-4.599,62.566,0     c2.975,0.707,6.101-0.233,8.194-2.463c2.093-2.23,2.832-5.409,1.938-8.334c-0.894-2.924-3.285-5.147-6.267-5.826     c-23.146-5.18-47.151-5.18-70.298,0c-10.217,2.281-20.076,5.944-29.303,10.889c-8.089,4.234-15.218,10.09-20.941,17.203     c-11.313,13.599-11.313,33.334,0,46.933c5.723,7.113,12.852,12.97,20.941,17.203c9.228,4.944,19.086,8.607,29.303,10.889     c23.143,5.211,47.155,5.211,70.298,0c10.217-2.281,20.076-5.944,29.303-10.889c8.089-4.234,15.218-10.09,20.941-17.203     c11.313-13.599,11.313-33.334,0-46.933c-1.832-2.491-4.869-3.795-7.937-3.41c-3.068,0.385-5.687,2.4-6.847,5.266     c-1.16,2.866-0.678,6.136,1.258,8.546c6.575,7.469,6.575,18.66,0,26.129c-4.306,5.225-9.624,9.527-15.633,12.646     c-7.859,4.194-16.254,7.298-24.951,9.225c-20.602,4.599-41.965,4.599-62.566,0c-8.695-1.925-17.087-5.029-24.943-9.225     c-6.013-3.118-11.334-7.419-15.642-12.646c-6.575-7.469-6.575-18.66,0-26.129C189.473,293.194,194.79,288.893,200.8,285.773z" data-original="#000000" class="active-path" data-old_color="#000000" fill="#DCA600"/>
		</g>
	</g>
</g></g> </svg>
