<?xml version="1.0"?>
<svg xmlns="http://www.w3.org/2000/svg" xmlns:xlink="http://www.w3.org/1999/xlink" version="1.1" id="Capa_1" x="0px" y="0px" viewBox="0 0 512 512" style="enable-background:new 0 0 512 512;" xml:space="preserve" width="512px" height="512px"><g><g>
	<path d="M161.886,352c-4.143,0-7.5,3.357-7.5,7.5v35.255H15v-50.033c0-26.225,21.335-47.56,47.56-47.56h5.535L52.75,349.317   c-0.766,2.603-0.066,5.416,1.829,7.356l24.748,25.347c1.411,1.445,3.346,2.261,5.366,2.261s3.955-0.815,5.366-2.261l24.748-25.347   c1.896-1.94,2.595-4.754,1.829-7.356l-15.345-52.155h2.116c4.143,0,7.5-3.357,7.5-7.5s-3.357-7.5-7.5-7.5H91.267H78.119H62.56   c-34.495,0-62.56,28.064-62.56,62.56v57.533c0,4.143,3.357,7.5,7.5,7.5h154.386c4.143,0,7.5-3.357,7.5-7.5V359.5   C169.386,355.357,166.028,352,161.886,352z M85.655,297.162l15.352,52.176l-16.313,16.708L68.38,349.338l15.351-52.176H85.655z" data-original="#000000" class="active-path" data-old_color="#000000" fill="#A67F05"/>
	<path d="M84.693,273.251c38.792,0,70.352-31.56,70.352-70.352v-18.438v-11.864c0-1.255-0.036-2.501-0.101-3.739   c-0.015-0.28-0.045-0.557-0.064-0.836c-0.063-0.969-0.134-1.935-0.235-2.892c-0.031-0.292-0.076-0.58-0.111-0.871   c-0.112-0.945-0.234-1.887-0.383-2.821c-0.047-0.29-0.105-0.577-0.155-0.867c-0.161-0.929-0.332-1.854-0.529-2.77   c-0.064-0.297-0.138-0.592-0.206-0.888c-0.205-0.897-0.422-1.79-0.661-2.674c-0.086-0.319-0.18-0.635-0.271-0.953   c-0.242-0.847-0.496-1.688-0.768-2.521c-0.115-0.352-0.236-0.701-0.356-1.051c-0.27-0.781-0.55-1.556-0.846-2.324   c-0.151-0.393-0.305-0.783-0.463-1.173c-0.285-0.703-0.582-1.398-0.89-2.089c-0.195-0.44-0.392-0.88-0.596-1.316   c-0.288-0.613-0.588-1.219-0.893-1.823c-0.249-0.494-0.496-0.988-0.757-1.476c-0.272-0.509-0.558-1.009-0.843-1.51   c-0.317-0.56-0.631-1.122-0.963-1.673c-0.218-0.361-0.449-0.712-0.673-1.068c-2.104-3.353-4.496-6.537-7.161-9.516   c-0.154-0.173-0.303-0.35-0.459-0.521c-0.559-0.612-1.137-1.209-1.719-1.803c-0.258-0.263-0.513-0.529-0.774-0.788   c-0.538-0.533-1.09-1.054-1.647-1.571c-0.333-0.309-0.667-0.616-1.005-0.918c-0.269-0.24-0.524-0.492-0.797-0.728   c-0.08-0.076-0.163-0.149-0.247-0.222c-0.119-0.103-0.24-0.201-0.392-0.323c-0.214-0.18-0.429-0.351-0.644-0.529   c-0.012-0.01-0.025-0.021-0.037-0.031c-0.317-0.262-0.633-0.528-0.95-0.78c-0.255-0.203-0.511-0.401-0.765-0.599   c-0.286-0.221-0.583-0.439-0.875-0.658c-0.03-0.022-0.059-0.044-0.089-0.067c-0.194-0.145-0.382-0.291-0.58-0.436   c-0.298-0.217-0.597-0.433-0.906-0.652c-0.394-0.277-0.791-0.547-1.189-0.816c-0.022-0.015-0.044-0.03-0.066-0.045   c-0.059-0.04-0.116-0.081-0.175-0.12c-0.351-0.234-0.701-0.469-1.078-0.712c-0.431-0.277-0.867-0.547-1.336-0.834   c-0.041-0.026-0.081-0.049-0.123-0.074c-0.09-0.055-0.18-0.109-0.271-0.164c-0.273-0.167-0.547-0.337-0.812-0.491   c-0.339-0.199-0.683-0.392-1.026-0.583l-0.144-0.08c-0.178-0.1-0.365-0.2-0.544-0.3c-0.145-0.08-0.288-0.161-0.433-0.239   c-0.163-0.09-0.318-0.179-0.487-0.269c-0.175-0.092-0.351-0.181-0.526-0.27l-0.243-0.123c-0.327-0.168-0.657-0.326-0.986-0.489   c-0.291-0.144-0.579-0.292-0.872-0.433c-0.813-0.389-1.632-0.755-2.454-1.111c-0.268-0.116-0.537-0.23-0.807-0.343   c-0.908-0.38-1.821-0.743-2.74-1.083c-0.066-0.024-0.133-0.047-0.198-0.071c-5.4-1.977-10.99-3.262-16.728-3.851   c-0.074-0.008-0.148-0.015-0.223-0.023c-1.101-0.109-2.208-0.195-3.319-0.253c-0.132-0.007-0.264-0.011-0.396-0.017   c-1.116-0.052-2.236-0.085-3.362-0.085c-13.098,0-25.881,3.626-36.969,10.485c-3.522,2.179-4.611,6.802-2.432,10.324   s6.802,4.61,10.324,2.432c8.715-5.392,18.769-8.241,29.076-8.241c1.028,0,2.049,0.034,3.065,0.089   c0.409,0.022,0.814,0.062,1.221,0.093c0.591,0.045,1.182,0.092,1.769,0.156c0.506,0.055,1.007,0.124,1.509,0.192   c0.478,0.065,0.956,0.134,1.431,0.212c0.54,0.089,1.077,0.185,1.611,0.289c0.439,0.085,0.876,0.18,1.313,0.276   c0.537,0.118,1.074,0.237,1.605,0.371c0.475,0.12,0.947,0.255,1.419,0.388c0.473,0.133,0.948,0.258,1.416,0.403   c0.921,0.286,1.836,0.594,2.743,0.93c0.198,0.073,0.39,0.157,0.586,0.232c0.78,0.3,1.557,0.611,2.326,0.947   c0.213,0.093,0.422,0.192,0.633,0.287c0.762,0.344,1.52,0.704,2.27,1.084c0.448,0.227,0.899,0.449,1.34,0.688   c0.094,0.052,0.193,0.106,0.291,0.161c0.666,0.366,1.324,0.744,1.974,1.136c0.12,0.073,0.238,0.146,0.372,0.229   c0.008,0.005,0.015,0.01,0.023,0.014c0.636,0.391,1.265,0.793,1.883,1.209c0.118,0.08,0.232,0.16,0.35,0.24   c0.6,0.41,1.192,0.83,1.774,1.262c0.126,0.094,0.251,0.189,0.377,0.284c0.577,0.436,1.146,0.883,1.705,1.341   c0.109,0.089,0.218,0.178,0.326,0.268c0.433,0.36,0.854,0.732,1.275,1.105c0.363,0.32,0.72,0.644,1.073,0.972   c0.358,0.334,0.714,0.671,1.063,1.013c0.31,0.304,0.612,0.613,0.914,0.923c0.364,0.375,0.728,0.749,1.081,1.134   c0.265,0.289,0.521,0.584,0.78,0.878c0.365,0.414,0.731,0.826,1.084,1.25c0.223,0.268,0.433,0.545,0.651,0.817   c1.192,1.492,2.306,3.047,3.341,4.658c0.273,0.426,0.552,0.848,0.813,1.281c0.204,0.337,0.393,0.683,0.59,1.025   c0.282,0.491,0.566,0.982,0.833,1.482c0.167,0.312,0.324,0.63,0.485,0.946c0.279,0.546,0.554,1.095,0.814,1.65   c0.135,0.288,0.264,0.579,0.394,0.87c0.268,0.598,0.528,1.2,0.774,1.807c0.107,0.265,0.212,0.531,0.315,0.798   c0.25,0.646,0.489,1.296,0.715,1.951c0.084,0.244,0.168,0.488,0.249,0.733c0.226,0.686,0.436,1.376,0.635,2.071   c0.066,0.229,0.133,0.458,0.196,0.688c0.194,0.714,0.371,1.434,0.536,2.157c0.051,0.223,0.106,0.444,0.155,0.668   c0.158,0.731,0.295,1.467,0.424,2.206c0.039,0.225,0.084,0.447,0.12,0.673c0.119,0.739,0.215,1.483,0.305,2.229   c0.027,0.23,0.063,0.458,0.088,0.689c0.081,0.757,0.137,1.518,0.186,2.28c0.014,0.222,0.039,0.442,0.051,0.665   c0.052,0.98,0.08,1.964,0.08,2.951v2.758c-10.596-3.127-19.792-9.944-25.962-19.452c-1.269-1.955-3.374-3.209-5.697-3.394   c-2.313-0.183-4.6,0.721-6.162,2.452c-12.797,14.181-31.07,22.313-50.135,22.313c-7.827,0-15.458-1.324-22.748-3.941v-0.736   c0-10.054,2.72-19.895,7.866-28.459c2.134-3.551,0.984-8.158-2.565-10.292c-3.552-2.132-8.157-0.985-10.292,2.565   c-6.548,10.897-10.009,23.41-10.009,36.186v5.811v24.492C14.341,241.691,45.9,273.251,84.693,273.251z M29.341,189.062   c7.364,2.118,14.974,3.213,22.748,3.213c20.301,0,39.867-7.544,54.91-20.944c8.674,9.874,20.206,16.675,33.046,19.487v12.083   c0,30.521-24.831,55.352-55.352,55.352c-30.521,0-55.353-24.831-55.353-55.352V189.062z" data-original="#000000" class="active-path" data-old_color="#000000" fill="#A67F05"/>
	<path d="M340.82,306.312c0.2-4.137-2.991-7.653-7.128-7.854c-4.178-0.202-7.654,2.991-7.854,7.129   c-0.588,12.135-3.833,20.539-8.682,22.481c-0.776,0.312-1.636,0.477-2.602,0.492c-0.531,0.009-1.091-0.026-1.698-0.117   c-1.724-0.252-3.658-0.911-5.741-1.953c-0.003-0.002-0.006-0.004-0.01-0.005c-10.612-5.328-22.782-19.103-33.65-37.314   c-1.924-3.225-3.805-6.594-5.631-10.074l10.504-4.208c12.17-4.873,18.104-18.739,13.229-30.909v-0.001   c-2.361-5.896-6.877-10.518-12.716-13.016c-5.837-2.498-12.301-2.574-18.194-0.212l-10.504,4.208   c-7.19-25.121-9.006-48.24-4.299-61.402c0-0.001,0-0.002,0.001-0.003c0.79-2.2,1.734-4.011,2.827-5.409   c0.355-0.458,0.733-0.872,1.161-1.263c0.686-0.633,1.402-1.095,2.189-1.41c5.651-2.265,15.573,3.262,25.888,14.43   c12.437,13.463,24.305,33.407,33.418,56.157c5.508,13.748,9.701,27.896,12.127,40.917c0.758,4.072,4.669,6.762,8.747,5.999   c4.071-0.759,6.758-4.675,5.999-8.747c-2.641-14.172-6.997-28.891-12.949-43.747c-9.776-24.406-22.677-45.983-36.323-60.758   c-15.301-16.564-30.388-23.021-42.484-18.175c-2.481,0.994-4.767,2.446-6.755,4.285c-1.026,0.936-1.993,1.986-2.854,3.099   c-1.936,2.477-3.559,5.484-4.855,8.919l-36.396,68.884l-43.032,17.239c-21.71,8.696-32.298,33.435-23.601,55.146   c4.213,10.516,12.27,18.761,22.679,23.216c0.66,0.283,1.325,0.549,1.994,0.797c0.222,0.082,0.446,0.152,0.669,0.231   c0.449,0.158,0.897,0.319,1.349,0.462c0.266,0.084,0.534,0.154,0.801,0.233c0.412,0.121,0.824,0.247,1.239,0.355   c0.284,0.075,0.571,0.136,0.857,0.204c0.4,0.096,0.799,0.195,1.201,0.279c0.295,0.062,0.591,0.11,0.887,0.166   c0.395,0.074,0.789,0.151,1.186,0.213c0.302,0.047,0.605,0.083,0.907,0.123c0.391,0.053,0.782,0.108,1.174,0.15   c0.307,0.033,0.615,0.054,0.923,0.08c0.389,0.033,0.778,0.067,1.168,0.089c0.31,0.017,0.621,0.023,0.932,0.034   c0.387,0.013,0.774,0.027,1.162,0.03c0.078,0,0.155,0.006,0.233,0.006c0.268,0,0.535-0.014,0.802-0.019   c0.329-0.006,0.658-0.01,0.988-0.024c0.043-0.002,0.086-0.001,0.129-0.003l11.368,28.377c2.013,5.025,5.862,8.966,10.839,11.096   c2.562,1.097,5.265,1.646,7.971,1.646c2.549,0,5.101-0.488,7.539-1.465c5.025-2.013,8.966-5.862,11.096-10.839   s2.194-10.484,0.181-15.51l-10.493-26.194l18.399-7.371l73.803,24.677c3.337,1.612,6.614,2.668,9.722,3.123   c1.247,0.188,2.497,0.283,3.692,0.283c0.166,0,0.332-0.002,0.496-0.006c2.758-0.044,5.413-0.571,7.894-1.565   C330.345,338.944,339.659,330.28,340.82,306.312z M266.226,244.675c2.178-0.872,4.563-0.843,6.715,0.078   c2.154,0.922,3.821,2.628,4.693,4.803c1.799,4.492-0.392,9.61-4.883,11.409l-11.47,4.594c-0.114-0.257-0.228-0.514-0.341-0.772   c-0.374-0.85-0.743-1.702-1.106-2.556c-0.154-0.362-0.309-0.722-0.462-1.086c-0.513-1.222-1.019-2.445-1.509-3.669   c-0.489-1.22-0.966-2.451-1.437-3.686c-0.143-0.375-0.283-0.75-0.424-1.126c-0.327-0.869-0.648-1.741-0.965-2.616   c-0.094-0.26-0.188-0.52-0.281-0.78L266.226,244.675z M142.874,303.541c-5.621-14.032,1.223-30.022,15.255-35.644l23.767-9.521   c3.685,18.16,10.517,35.215,20.39,50.896l-23.768,9.521c-1.564,0.627-3.222,1.115-4.924,1.452   c-0.042,0.008-0.082,0.023-0.124,0.032c-5.33,1.031-10.837,0.455-15.932-1.732C150.805,315.666,145.597,310.336,142.874,303.541z    M205.252,358.653c-0.554,1.293-1.577,2.293-2.884,2.816s-2.737,0.506-4.029-0.047c-1.294-0.554-2.294-1.578-2.817-2.884   l-10.493-26.193l9.777-3.917l10.493,26.194C205.822,355.929,205.805,357.36,205.252,358.653z M229.273,300.381   c-1.685-0.563-3.517-0.511-5.167,0.151l-7.627,3.055c-10.206-15.538-17.045-32.611-20.389-50.898l7.627-3.055   c1.65-0.661,3.012-1.887,3.842-3.458l21.394-40.488c0.013,0.127,0.031,0.258,0.044,0.385c0.068,0.639,0.145,1.284,0.221,1.929   c0.049,0.41,0.094,0.817,0.147,1.229c0.09,0.709,0.19,1.426,0.291,2.142c0.05,0.357,0.096,0.711,0.148,1.07   c0.133,0.905,0.278,1.817,0.427,2.734c0.029,0.177,0.054,0.351,0.083,0.528c0.185,1.109,0.382,2.227,0.59,3.352   c0.034,0.184,0.073,0.371,0.108,0.555c0.176,0.931,0.356,1.864,0.548,2.805c0.074,0.362,0.155,0.728,0.231,1.091   c0.161,0.768,0.323,1.536,0.495,2.31c0.094,0.424,0.195,0.851,0.292,1.276c0.165,0.722,0.331,1.444,0.505,2.17   c0.109,0.455,0.223,0.912,0.336,1.368c0.173,0.7,0.347,1.401,0.528,2.105c0.123,0.479,0.25,0.959,0.378,1.439   c0.183,0.691,0.368,1.382,0.558,2.076c0.135,0.49,0.272,0.98,0.41,1.471c0.195,0.69,0.393,1.382,0.595,2.076   c0.145,0.498,0.292,0.997,0.442,1.496c0.207,0.693,0.419,1.387,0.634,2.083c0.155,0.501,0.31,1.002,0.469,1.504   c0.221,0.701,0.449,1.404,0.678,2.107c0.163,0.5,0.325,1,0.492,1.502c0.238,0.714,0.482,1.429,0.728,2.145   c0.169,0.493,0.336,0.985,0.508,1.479c0.259,0.742,0.527,1.485,0.795,2.229c0.169,0.469,0.334,0.938,0.507,1.408   c0.302,0.824,0.614,1.65,0.927,2.476c0.147,0.389,0.289,0.776,0.438,1.166c0.467,1.218,0.944,2.437,1.433,3.658   c0.488,1.218,0.983,2.426,1.485,3.626c0.173,0.416,0.352,0.825,0.527,1.238c0.331,0.781,0.662,1.563,0.999,2.337   c0.211,0.485,0.426,0.963,0.639,1.445c0.307,0.694,0.614,1.388,0.925,2.075c0.23,0.508,0.464,1.011,0.697,1.516   c0.3,0.651,0.6,1.302,0.904,1.946c0.243,0.516,0.489,1.026,0.734,1.538c0.3,0.625,0.6,1.249,0.904,1.868   c0.252,0.515,0.507,1.026,0.761,1.536c0.302,0.605,0.604,1.207,0.909,1.805c0.259,0.508,0.519,1.014,0.781,1.518   c0.308,0.593,0.617,1.183,0.928,1.77c0.263,0.497,0.527,0.992,0.792,1.484c0.314,0.582,0.629,1.159,0.946,1.734   c0.266,0.483,0.532,0.967,0.8,1.445c0.324,0.579,0.651,1.151,0.977,1.722c0.265,0.463,0.529,0.928,0.796,1.386   c0.334,0.575,0.672,1.142,1.009,1.709c0.264,0.444,0.527,0.891,0.792,1.33c0.352,0.582,0.707,1.154,1.061,1.727   c0.253,0.41,0.505,0.825,0.76,1.23c0.402,0.64,0.808,1.268,1.213,1.897c0.21,0.326,0.419,0.659,0.63,0.982   c0.608,0.93,1.219,1.848,1.834,2.752c0.235,0.346,0.473,0.681,0.708,1.023c0.39,0.565,0.779,1.132,1.171,1.686   c0.284,0.402,0.571,0.793,0.856,1.189c0.346,0.479,0.691,0.962,1.038,1.433c0.305,0.414,0.612,0.818,0.919,1.226   c0.329,0.438,0.658,0.877,0.989,1.307c0.093,0.121,0.184,0.247,0.277,0.366L229.273,300.381z" data-original="#000000" class="active-path" data-old_color="#000000" fill="#A67F05"/>
	<path d="M476.894,220.894c-16.783,0-30.846,11.842-34.292,27.606h-38.929c-1.782-54.82-23.078-106.26-60.593-146.295l27.518-27.517   c5.604,3.61,12.127,5.553,18.953,5.553c9.377,0,18.193-3.651,24.823-10.282c6.631-6.631,10.283-15.446,10.283-24.824   c0-9.377-3.651-18.193-10.282-24.824s-15.447-10.282-24.824-10.282c-9.378,0-18.193,3.652-24.824,10.282   c-6.631,6.631-10.282,15.447-10.282,24.824c0,6.822,1.942,13.342,5.548,18.944l-32.736,32.736   c-1.406,1.407-2.196,3.314-2.196,5.304s0.79,3.896,2.196,5.304c39.693,39.691,61.554,92.456,61.554,148.571   s-21.86,108.88-61.554,148.571c-0.733,0.734-1.299,1.607-1.673,2.558c-0.335,0.848-0.521,1.771-0.523,2.736v0.001   c0,0.004,0,0.007,0,0.011s0,0.008,0,0.012s0,0.008,0,0.012s0,0.007,0,0.01c0,0.001,0,0.001,0,0.002   c0.005,1.438,0.413,2.779,1.119,3.918c0.303,0.49,0.664,0.948,1.078,1.363l32.739,32.727c-3.609,5.604-5.552,12.126-5.552,18.95   c0,9.377,3.651,18.193,10.282,24.823c6.631,6.631,15.446,10.283,24.824,10.283c9.377,0,18.193-3.651,24.824-10.282   s10.282-15.447,10.282-24.824c0-9.378-3.652-18.193-10.282-24.824c-6.631-6.631-15.447-10.282-24.824-10.282   c-6.823,0-13.344,1.942-18.947,5.549l-27.53-27.519c37.516-40.033,58.813-91.47,60.598-146.289h38.929   c3.446,15.765,17.508,27.606,34.292,27.606C496.251,291.106,512,275.357,512,256S496.251,220.894,476.894,220.894z M375.334,30.918   C375.334,30.917,375.334,30.917,375.334,30.918c3.797-3.798,8.846-5.89,14.217-5.89c5.37,0,10.42,2.092,14.217,5.89   c3.798,3.797,5.89,8.847,5.89,14.217c0,5.371-2.092,10.42-5.89,14.217c-3.797,3.798-8.847,5.89-14.217,5.89   c-5.358,0-10.394-2.083-14.188-5.863c-0.01-0.01-0.019-0.022-0.029-0.032c-0.01-0.01-0.02-0.017-0.029-0.027   c-3.777-3.793-5.859-8.828-5.859-14.184C369.444,39.765,371.536,34.715,375.334,30.918z M403.768,452.648   C403.769,452.648,403.769,452.648,403.768,452.648c3.798,3.797,5.89,8.846,5.89,14.217c0,5.37-2.092,10.42-5.89,14.217   c-3.797,3.798-8.847,5.89-14.217,5.89c-5.371,0-10.42-2.092-14.217-5.89c-3.798-3.797-5.89-8.847-5.89-14.217   c0-5.371,2.092-10.42,5.89-14.218c3.797-3.797,8.846-5.889,14.217-5.889C394.921,446.759,399.971,448.851,403.768,452.648z    M476.894,276.106c-11.087,0-20.106-9.02-20.106-20.106s9.02-20.106,20.106-20.106S497,244.913,497,256   S487.98,276.106,476.894,276.106z" data-original="#000000" class="active-path" data-old_color="#000000" fill="#A67F05"/>
</g></g> </svg>
