<?xml version="1.0"?>
<svg xmlns="http://www.w3.org/2000/svg" id="Layer_5" enable-background="new 0 0 64 64" height="512px" viewBox="0 0 64 64" width="512px" class=""><g><path d="m36.354 45.702c2.191-1.428 3.646-3.897 3.646-6.702 0-4.411-3.589-8-8-8s-8 3.589-8 8c0 2.805 1.455 5.274 3.646 6.702-5.593 1.836-9.646 7.099-9.646 13.298v4h28v-4c0-6.199-4.053-11.462-9.646-13.298zm1.232 11.298-4 4h-.202l4.171-12.627c.716.376 1.391.818 2.013 1.325l-.478 2.708-3.659 2.439zm-12.675-4.595-.478-2.708c.622-.507 1.297-.949 2.013-1.325l4.171 12.628h-.202l-4-4 2.156-2.155zm1.089-13.405c0-3.309 2.691-6 6-6s6 2.691 6 6-2.691 6-6 6-6-2.691-6-6zm9.706 8.592-3.706 11.219-3.705-11.219c1.168-.38 2.412-.592 3.705-.592 1.294 0 2.537.212 3.706.592zm-15.706 11.408c0-2.872 1.017-5.51 2.706-7.578l.383 2.173 2.341 1.561-1.844 1.844 4 4h-7.586zm24 2h-7.586l4-4-1.844-1.845 2.341-1.561.383-2.173c1.689 2.069 2.706 4.707 2.706 7.579z" data-original="#000000" class="active-path" data-old_color="#000000" fill="#A67F05"/><path d="m27 29h10v-12h4.869l-9.869-14.803-9.869 14.803h4.869zm-1.131-14 6.131-9.197 6.131 9.197h-3.131v12h-6v-12z" data-original="#000000" class="active-path" data-old_color="#000000" fill="#A67F05"/><path d="m2.725 14.725 3.449 17.247 3.389-3.389 8.506 8.845 7.358-7.358-8.845-8.506 3.389-3.389zm19.847 15.373-4.474 4.474-8.506-8.845-2.189 2.188-2.128-10.64 10.641 2.128-2.188 2.189z" data-original="#000000" class="active-path" data-old_color="#000000" fill="#A67F05"/><path d="m38.572 30.07 7.358 7.358 8.506-8.845 3.389 3.389 3.449-17.247-17.247 3.449 3.389 3.389zm20.153-12.795-2.128 10.641-2.189-2.188-8.506 8.845-4.474-4.474 8.845-8.506-2.188-2.189z" data-original="#000000" class="active-path" data-old_color="#000000" fill="#A67F05"/><path d="m4 7c1.654 0 3-1.346 3-3s-1.346-3-3-3-3 1.346-3 3 1.346 3 3 3zm0-4c.551 0 1 .449 1 1s-.449 1-1 1-1-.449-1-1 .449-1 1-1z" data-original="#000000" class="active-path" data-old_color="#000000" fill="#A67F05"/><path d="m12.328 12.379h2v1.9h-2z" transform="matrix(.707 -.707 .707 .707 -5.521 13.328)" data-original="#000000" class="active-path" data-old_color="#000000" fill="#A67F05"/><path d="m6.707 6.707h2v2h-2z" transform="matrix(.707 -.707 .707 .707 -3.192 7.707)" data-original="#000000" class="active-path" data-old_color="#000000" fill="#A67F05"/><path d="m9.536 9.536h2v2h-2z" transform="matrix(.707 -.707 .707 .707 -4.364 10.536)" data-original="#000000" class="active-path" data-old_color="#000000" fill="#A67F05"/><path d="m4 57c-1.654 0-3 1.346-3 3s1.346 3 3 3 3-1.346 3-3-1.346-3-3-3zm0 4c-.551 0-1-.449-1-1s.449-1 1-1 1 .449 1 1-.449 1-1 1z" data-original="#000000" class="active-path" data-old_color="#000000" fill="#A67F05"/><path d="m12.379 49.672h1.9v2h-1.9z" transform="matrix(.707 -.707 .707 .707 -31.927 24.266)" data-original="#000000" class="active-path" data-old_color="#000000" fill="#A67F05"/><path d="m6.707 55.293h2v2h-2z" transform="matrix(.707 -.707 .707 .707 -37.548 21.938)" data-original="#000000" class="active-path" data-old_color="#000000" fill="#A67F05"/><path d="m9.536 52.464h2v2h-2z" transform="matrix(.707 -.707 .707 .707 -34.719 23.109)" data-original="#000000" class="active-path" data-old_color="#000000" fill="#A67F05"/><path d="m60 57c-1.654 0-3 1.346-3 3s1.346 3 3 3 3-1.346 3-3-1.346-3-3-3zm0 4c-.551 0-1-.449-1-1s.449-1 1-1 1 .449 1 1-.449 1-1 1z" data-original="#000000" class="active-path" data-old_color="#000000" fill="#A67F05"/><path d="m55.293 55.293h2v2h-2z" transform="matrix(.707 -.707 .707 .707 -23.317 56.293)" data-original="#000000" class="active-path" data-old_color="#000000" fill="#A67F05"/><path d="m49.672 49.722h2v1.9h-2z" transform="matrix(.707 -.707 .707 .707 -20.989 50.672)" data-original="#000000" class="active-path" data-old_color="#000000" fill="#A67F05"/><path d="m52.464 52.464h2v2h-2z" transform="matrix(.707 -.707 .707 .707 -22.146 53.464)" data-original="#000000" class="active-path" data-old_color="#000000" fill="#A67F05"/><path d="m60 7c1.654 0 3-1.346 3-3s-1.346-3-3-3-3 1.346-3 3 1.346 3 3 3zm0-4c.551 0 1 .449 1 1s-.449 1-1 1-1-.449-1-1 .449-1 1-1z" data-original="#000000" class="active-path" data-old_color="#000000" fill="#A67F05"/><path d="m52.464 9.536h2v2h-2z" transform="matrix(.707 -.707 .707 .707 8.21 40.891)" data-original="#000000" class="active-path" data-old_color="#000000" fill="#A67F05"/><path d="m55.293 6.707h2v2h-2z" transform="matrix(.707 -.707 .707 .707 11.038 42.063)" data-original="#000000" class="active-path" data-old_color="#000000" fill="#A67F05"/><path d="m49.722 12.328h1.9v2h-1.9z" transform="matrix(.707 -.707 .707 .707 5.417 39.734)" data-original="#000000" class="active-path" data-old_color="#000000" fill="#A67F05"/><path d="m60 38c-1.654 0-3 1.346-3 3s1.346 3 3 3 3-1.346 3-3-1.346-3-3-3zm0 4c-.551 0-1-.449-1-1s.449-1 1-1 1 .449 1 1-.449 1-1 1z" data-original="#000000" class="active-path" data-old_color="#000000" fill="#A67F05"/><path d="m53 40h2v2h-2z" data-original="#000000" class="active-path" data-old_color="#000000" fill="#A67F05"/><path d="m45 40h2v2h-2z" data-original="#000000" class="active-path" data-old_color="#000000" fill="#A67F05"/><path d="m49 40h2v2h-2z" data-original="#000000" class="active-path" data-old_color="#000000" fill="#A67F05"/><path d="m4 44c1.654 0 3-1.346 3-3s-1.346-3-3-3-3 1.346-3 3 1.346 3 3 3zm0-4c.551 0 1 .449 1 1s-.449 1-1 1-1-.449-1-1 .449-1 1-1z" data-original="#000000" class="active-path" data-old_color="#000000" fill="#A67F05"/><path d="m13 40h2v2h-2z" data-original="#000000" class="active-path" data-old_color="#000000" fill="#A67F05"/><path d="m9 40h2v2h-2z" data-original="#000000" class="active-path" data-old_color="#000000" fill="#A67F05"/><path d="m17 40h2v2h-2z" data-original="#000000" class="active-path" data-old_color="#000000" fill="#A67F05"/></g> </svg>
