<?xml version="1.0" encoding="UTF-8" standalone="no" ?>
<!DOCTYPE svg PUBLIC "-//W3C//DTD SVG 1.1//EN" "http://www.w3.org/Graphics/SVG/1.1/DTD/svg11.dtd">
<svg xmlns="http://www.w3.org/2000/svg" xmlns:xlink="http://www.w3.org/1999/xlink" version="1.1" width="1024" height="1024" viewBox="0 0 1024 1024" xml:space="preserve">
<desc>Created with Fabric.js 3.1.0</desc>
<defs>
</defs>
<g transform="matrix(1 0 0 1 512 512)" id="background-logo"  >
<rect style="stroke: none; stroke-width: 1; stroke-dasharray: none; stroke-linecap: butt; stroke-dashoffset: 0; stroke-linejoin: miter; stroke-miterlimit: 4; fill: rgb(255,255,255); fill-rule: nonzero; opacity: 1;"  paint-order="stroke"  x="-512" y="-512" rx="0" ry="0" width="1024" height="1024" />
</g>
<g transform="matrix(1.5745007680491552 0 0 1.5745007680491552 512 395.2980030721966)" style="" id="logo-logo"  >
	<g transform="matrix(2.4453 0 0 -2.4453 0 0)"  >
<path style="stroke: none; stroke-width: 1; stroke-dasharray: none; stroke-linecap: butt; stroke-dashoffset: 0; stroke-linejoin: miter; stroke-miterlimit: 4; fill: rgb(165,126,13); fill-rule: nonzero; opacity: 1;"  paint-order="stroke"  transform=" translate(50.3615358884869, 4.252535888486889)" d="m 0 0 c -2.068 2.525 -4.964 4.196 -8.618 4.932 c -2.885 0.581 -5.511 0.357 -7.917 -0.547 c 0.846 1.459 1.463 3.122 1.837 4.981 c 0.219 1.088 0.322 2.138 0.319 3.154 c 3.813 0.951 8.002 -0.039 10.971 -2.975 C -0.802 6.967 0.337 3.408 0 0 m -3.408 -18.05 c -2.969 -2.936 -7.158 -3.926 -10.971 -2.975 c 0.003 1.016 -0.1 2.066 -0.319 3.154 c -0.374 1.859 -0.991 3.522 -1.837 4.98 c 2.406 -0.903 5.032 -1.127 7.917 -0.546 c 3.654 0.736 6.55 2.407 8.618 4.932 c 0.337 -3.408 -0.802 -6.967 -3.408 -9.545 m -15.859 10.689 c -0.44 0.393 -2.821 -0.284 -2.821 -0.284 c -1.056 0.548 -2.209 0.998 -3.466 1.333 c -6.431 1.715 -12.956 -0.99 -16.37 -6.378 c -5.388 -3.414 -8.094 -9.939 -6.378 -16.37 c 0.335 -1.258 0.785 -2.41 1.332 -3.466 c 0 0 -0.676 -2.381 -0.284 -2.821 c 4.289 -4.803 3.949 -11.928 -0.78 -16.338 c -0.712 -0.664 -1.499 -1.204 -2.328 -1.646 c -0.828 0.442 -1.615 0.982 -2.327 1.646 c -4.729 4.41 -5.07 11.535 -0.781 16.338 c 0.393 0.44 -0.284 2.821 -0.284 2.821 c 0.548 1.056 0.998 2.208 1.333 3.466 c 1.715 6.431 -0.99 12.956 -6.378 16.37 c -3.414 5.388 -9.939 8.093 -16.37 6.378 c -1.258 -0.335 -2.41 -0.785 -3.466 -1.333 c 0 0 -2.381 0.677 -2.821 0.284 c -4.803 -4.288 -11.928 -3.948 -16.338 0.781 c -0.664 0.712 -1.204 1.499 -1.646 2.327 c 0.442 0.829 0.982 1.616 1.646 2.328 c 4.41 4.729 11.535 5.069 16.338 0.78 c 0.44 -0.392 2.821 0.284 2.821 0.284 c 1.056 -0.547 2.208 -0.997 3.466 -1.332 c 6.431 -1.716 12.956 0.99 16.37 6.378 c 5.388 3.414 8.093 9.939 6.378 16.37 c -0.335 1.258 -0.785 2.41 -1.333 3.466 c 0 0 0.677 2.381 0.284 2.821 c -4.289 4.803 -3.948 11.928 0.781 16.338 c 0.712 0.663 1.499 1.203 2.327 1.646 c 0.829 -0.443 1.616 -0.983 2.328 -1.646 c 4.729 -4.41 5.069 -11.535 0.78 -16.338 c -0.392 -0.44 0.284 -2.821 0.284 -2.821 c -0.547 -1.056 -0.997 -2.208 -1.332 -3.466 c -1.716 -6.431 0.99 -12.956 6.377 -16.37 c 3.415 -5.388 9.94 -8.094 16.371 -6.378 c 1.257 0.335 2.41 0.785 3.466 1.332 c 0 0 2.381 -0.676 2.821 -0.284 c 4.803 4.289 11.928 3.949 16.338 -0.78 c 0.663 -0.712 1.203 -1.499 1.646 -2.328 c -0.443 -0.828 -0.983 -1.615 -1.646 -2.327 c -4.41 -4.729 -11.535 -5.069 -16.338 -0.781 m -22.457 -30.718 c 1.459 -0.847 3.122 -1.463 4.981 -1.837 c 1.088 -0.219 2.138 -0.322 3.154 -0.32 c 0.951 -3.813 -0.039 -8.001 -2.976 -10.97 c -2.577 -2.606 -6.136 -3.745 -9.544 -3.408 c 2.525 2.068 4.196 4.964 4.932 8.617 c 0.581 2.886 0.357 5.512 -0.547 7.918 m -22.435 -13.127 c -2.936 2.969 -3.926 7.157 -2.975 10.97 c 1.016 -0.002 2.066 0.101 3.154 0.32 c 1.859 0.374 3.522 0.99 4.98 1.837 c -0.903 -2.406 -1.127 -5.032 -0.546 -7.918 c 0.736 -3.653 2.407 -6.549 4.932 -8.617 c -3.408 -0.337 -6.967 0.802 -9.545 3.408 m -21.866 33.335 c -0.219 -1.088 -0.322 -2.138 -0.32 -3.154 c -3.813 -0.951 -8.001 0.039 -10.97 2.975 c -2.606 2.578 -3.746 6.137 -3.408 9.545 c 2.068 -2.525 4.964 -4.196 8.617 -4.932 c 2.886 -0.581 5.512 -0.357 7.918 0.546 c -0.847 -1.458 -1.463 -3.121 -1.837 -4.98 m -11.29 27.416 c 2.969 2.936 7.157 3.926 10.97 2.975 c -0.002 -1.016 0.101 -2.066 0.32 -3.154 c 0.374 -1.859 0.99 -3.522 1.837 -4.981 c -2.406 0.904 -5.032 1.128 -7.918 0.547 c -3.653 -0.736 -6.549 -2.407 -8.617 -4.932 c -0.338 3.408 0.802 6.967 3.408 9.545 M -59 29.574 c -1.458 0.846 -3.121 1.463 -4.98 1.837 c -1.088 0.219 -2.138 0.322 -3.154 0.319 c -0.951 3.814 0.039 8.002 2.975 10.971 c 2.578 2.606 6.137 3.745 9.545 3.408 c -2.525 -2.068 -4.196 -4.964 -4.932 -8.617 c -0.581 -2.886 -0.357 -5.512 0.546 -7.918 m 22.435 13.127 c 2.937 -2.969 3.927 -7.157 2.976 -10.971 c -1.016 0.003 -2.066 -0.1 -3.154 -0.319 c -1.859 -0.374 -3.522 -0.991 -4.981 -1.837 c 0.904 2.406 1.128 5.032 0.547 7.918 c -0.736 3.653 -2.407 6.549 -4.932 8.617 c 3.408 0.337 6.967 -0.802 9.544 -3.408 M 2.403 -4.253 c 0.2 0.539 0.385 1.093 0.54 1.674 c 2.045 7.667 -2.181 15.488 -9.764 17.984 c -2.98 0.979 -5.62 1.098 -8.01 0.575 c -1.133 -0.248 -2.21 -0.641 -3.239 -1.159 c 0.288 -1.247 0.358 -2.524 0.224 -3.786 c -0.287 -2.7 -1.523 -5.319 -3.708 -7.357 c -3.414 -3.182 -8.431 -3.808 -12.571 -1.966 c -1.295 0.576 -2.506 1.387 -3.553 2.445 c -0.736 0.744 -1.339 1.57 -1.832 2.442 c -0.872 0.493 -1.698 1.096 -2.442 1.832 c -1.058 1.047 -1.869 2.258 -2.445 3.553 c -1.842 4.14 -1.217 9.157 1.966 12.571 c 2.038 2.186 4.656 3.421 7.357 3.708 c 1.262 0.134 2.539 0.064 3.786 -0.223 c 0.518 1.028 0.911 2.105 1.159 3.238 c 0.523 2.39 0.404 5.03 -0.576 8.01 c -2.495 7.583 -10.316 11.809 -17.983 9.764 c -0.581 -0.155 -1.135 -0.34 -1.674 -0.54 c -0.538 0.2 -1.092 0.385 -1.673 0.54 c -7.667 2.045 -15.488 -2.181 -17.984 -9.764 c -0.98 -2.98 -1.099 -5.62 -0.576 -8.01 c 0.248 -1.133 0.641 -2.21 1.16 -3.238 c 1.247 0.287 2.524 0.357 3.786 0.223 c 2.7 -0.287 5.319 -1.522 7.357 -3.708 c 3.182 -3.414 3.808 -8.431 1.966 -12.571 c -0.576 -1.295 -1.387 -2.506 -2.445 -3.553 c -0.744 -0.736 -1.57 -1.339 -2.442 -1.832 c -0.493 -0.872 -1.096 -1.698 -1.832 -2.442 c -1.047 -1.058 -2.259 -1.869 -3.554 -2.445 c -4.14 -1.842 -9.156 -1.216 -12.57 1.966 c -2.186 2.038 -3.421 4.657 -3.708 7.357 c -0.134 1.262 -0.064 2.539 0.223 3.786 c -1.028 0.518 -2.105 0.911 -3.238 1.159 c -2.39 0.523 -5.03 0.404 -8.01 -0.575 c -7.584 -2.496 -11.809 -10.317 -9.764 -17.984 c 0.155 -0.581 0.339 -1.135 0.54 -1.674 c -0.201 -0.538 -0.385 -1.092 -0.54 -1.673 c -2.045 -7.667 2.18 -15.488 9.764 -17.984 c 2.98 -0.979 5.62 -1.099 8.01 -0.576 c 1.133 0.249 2.21 0.642 3.238 1.16 c -0.287 1.247 -0.357 2.524 -0.223 3.786 c 0.287 2.7 1.522 5.319 3.708 7.357 c 3.414 3.182 8.43 3.808 12.57 1.966 c 1.295 -0.576 2.507 -1.387 3.554 -2.445 c 0.736 -0.744 1.339 -1.57 1.832 -2.442 c 0.872 -0.493 1.698 -1.096 2.442 -1.832 c 1.058 -1.047 1.869 -2.259 2.445 -3.553 c 1.842 -4.141 1.216 -9.157 -1.966 -12.571 c -2.038 -2.186 -4.657 -3.421 -7.357 -3.708 c -1.262 -0.134 -2.539 -0.064 -3.786 0.223 c -0.519 -1.028 -0.912 -2.105 -1.16 -3.238 c -0.523 -2.39 -0.404 -5.03 0.576 -8.01 c 2.496 -7.584 10.317 -11.809 17.984 -9.764 c 0.581 0.155 1.135 0.34 1.673 0.54 c 0.539 -0.2 1.093 -0.385 1.674 -0.54 c 7.667 -2.045 15.488 2.18 17.983 9.764 c 0.98 2.98 1.099 5.62 0.576 8.01 c -0.248 1.133 -0.641 2.21 -1.159 3.238 c -1.247 -0.287 -2.524 -0.357 -3.786 -0.223 c -2.7 0.287 -5.319 1.522 -7.357 3.708 c -3.183 3.414 -3.808 8.43 -1.966 12.571 c 0.576 1.295 1.387 2.506 2.445 3.553 c 0.744 0.736 1.57 1.339 2.442 1.832 c 0.493 0.872 1.096 1.698 1.832 2.442 c 1.047 1.058 2.258 1.869 3.553 2.445 c 4.14 1.842 9.157 1.216 12.571 -1.966 c 2.185 -2.038 3.421 -4.657 3.708 -7.357 c 0.134 -1.262 0.064 -2.539 -0.224 -3.786 c 1.029 -0.518 2.106 -0.911 3.239 -1.16 c 2.39 -0.523 5.03 -0.403 8.01 0.576 c 7.583 2.496 11.809 10.317 9.764 17.984 c -0.155 0.581 -0.34 1.135 -0.54 1.673" stroke-linecap="round" />
</g>
	<g transform="matrix(2.4453 0 0 -2.4453 0 0)"  >
<path style="stroke: none; stroke-width: 1; stroke-dasharray: none; stroke-linecap: butt; stroke-dashoffset: 0; stroke-linejoin: miter; stroke-miterlimit: 4; fill: rgb(165,126,13); fill-rule: nonzero; opacity: 1;"  paint-order="stroke"  transform=" translate(0, -5.074500000000002)" d="m 0 0 c -2.803 0 -5.074 2.272 -5.074 5.074 c 0 2.803 2.271 5.075 5.074 5.075 c 2.803 0 5.074 -2.272 5.074 -5.075 C 5.074 2.272 2.803 0 0 0 m 0 13.492 c -4.649 0 -8.417 -3.769 -8.417 -8.418 c 0 -4.648 3.768 -8.417 8.417 -8.417 c 4.649 0 8.417 3.769 8.417 8.417 c 0 4.649 -3.768 8.418 -8.417 8.418" stroke-linecap="round" />
</g>
	<g transform="matrix(2.4453 0 0 -2.4453 -61.84530000000001 -60.52859999999998)"  >
<path style="stroke: none; stroke-width: 1; stroke-dasharray: none; stroke-linecap: butt; stroke-dashoffset: 0; stroke-linejoin: miter; stroke-miterlimit: 4; fill: rgb(165,126,13); fill-rule: nonzero; opacity: 1;"  paint-order="stroke"  transform=" translate(3.1963859367159273, -7.8236954199761115)" d="M 0 0 C 0.145 0.176 0.394 0.443 0.6 0.659 C 1.334 -0.079 2.064 -0.822 2.807 -1.549 C 3.514 -2.243 4.325 -2.737 5.173 -3.032 C 5.044 -3.633 4.709 -4.193 4.172 -4.66 C 2.829 -5.826 1.38 -5.827 0.014 -4.627 C -1.378 -3.405 -1.354 -1.642 0 0 M 4.627 4.627 C 6.27 5.981 8.032 6.006 9.255 4.613 C 10.454 3.247 10.453 1.798 9.287 0.455 C 8.821 -0.082 8.26 -0.416 7.659 -0.546 C 7.365 0.303 6.87 1.113 6.177 1.821 C 5.449 2.563 4.706 3.294 3.969 4.028 C 4.185 4.233 4.452 4.482 4.627 4.627 M -13.136 4.342 c 0.932 0.033 1.879 0.288 2.789 0.776 c 1.107 0.593 0.971 2.218 -0.235 2.57 v 0 c -0.35 0.103 -0.733 0.072 -1.047 -0.113 c -1.428 -0.841 -2.875 -0.703 -3.925 0.493 c -1.198 1.365 -1.198 2.815 -0.031 4.158 c 1.21 1.394 3.047 1.457 4.617 -0.022 c 0.651 -0.614 9.682 -9.66 9.682 -9.66 c -2.042 -2.062 -2.854 -4.256 -2.503 -6.177 c 0.25 -1.37 1.08 -2.601 2.485 -3.539 c 1.778 -1.185 3.709 -1.402 5.435 -0.713 c 0.924 0.368 1.79 0.992 2.542 1.874 c 0.681 0.801 1.091 1.743 1.241 2.724 c 0.982 0.15 1.923 0.56 2.725 1.242 c 0.882 0.751 1.505 1.617 1.873 2.541 c 0.689 1.727 0.473 3.657 -0.713 5.435 C 10.861 7.337 9.63 8.167 8.261 8.417 C 6.34 8.767 4.145 7.956 2.083 5.913 c 0 0 -9.046 9.031 -9.659 9.682 c -1.48 1.57 -1.416 3.408 -0.022 4.617 c 1.342 1.167 2.792 1.168 4.157 -0.031 c 1.196 -1.05 1.335 -2.496 0.494 -3.925 c -0.185 -0.314 -0.216 -0.697 -0.114 -1.047 c 0.353 -1.206 1.977 -1.342 2.571 -0.234 c 0.487 0.909 0.742 1.857 0.775 2.788 c 0.066 1.861 -0.753 3.659 -2.408 4.961 c -2.577 2.031 -5.821 1.371 -7.975 -1.16 c -1.471 -1.728 -1.694 -4.101 -0.702 -6.137 c -2.036 0.993 -4.409 0.769 -6.136 -0.701 c -2.531 -2.154 -3.192 -5.398 -1.161 -7.976 c 1.303 -1.654 3.1 -2.474 4.961 -2.408" stroke-linecap="round" />
</g>
	<g transform="matrix(2.4453 0 0 -2.4453 60.52859999999998 -60.5286)"  >
<path style="stroke: none; stroke-width: 1; stroke-dasharray: none; stroke-linecap: butt; stroke-dashoffset: 0; stroke-linejoin: miter; stroke-miterlimit: 4; fill: rgb(165,126,13); fill-rule: nonzero; opacity: 1;"  paint-order="stroke"  transform=" translate(-3.2106954199761137, -12.450828817364258)" d="M 0 0 C -1.366 -1.199 -2.815 -1.199 -4.158 -0.033 C -4.695 0.434 -5.029 0.994 -5.159 1.596 C -4.31 1.89 -3.5 2.384 -2.792 3.078 C -2.05 3.806 -1.32 4.548 -0.585 5.286 C -0.38 5.07 -0.131 4.803 0.014 4.627 C 1.368 2.985 1.392 1.223 0 0 M -3.954 8.655 C -4.692 7.921 -5.435 7.191 -6.162 6.448 C -6.856 5.741 -7.35 4.93 -7.645 4.081 c -0.601 0.13 -1.161 0.465 -1.628 1.001 c -1.166 1.344 -1.167 2.793 0.033 4.158 c 1.222 1.393 2.985 1.368 4.627 0.015 c 0.176 -0.145 0.443 -0.395 0.659 -0.6 m 22.065 2.722 c 2.031 2.578 1.371 5.822 -1.16 7.976 c -1.728 1.47 -4.101 1.694 -6.137 0.702 c 0.993 2.035 0.769 4.409 -0.701 6.136 c -2.154 2.531 -5.398 3.191 -7.976 1.161 c -1.654 -1.303 -2.474 -3.101 -2.408 -4.961 c 0.033 -0.932 0.288 -1.88 0.775 -2.789 c 0.594 -1.108 2.218 -0.972 2.571 0.235 c 0.103 0.35 0.072 0.733 -0.113 1.047 c -0.841 1.428 -0.703 2.874 0.493 3.924 C 4.82 26.007 6.27 26.006 7.613 24.84 C 9.007 23.63 9.07 21.793 7.59 20.222 C 6.977 19.571 -2.069 10.54 -2.069 10.54 c -2.062 2.043 -4.256 2.855 -6.177 2.504 c -1.37 -0.25 -2.601 -1.08 -3.539 -2.486 C -12.97 8.781 -13.187 6.85 -12.498 5.123 C -12.13 4.2 -11.506 3.333 -10.624 2.582 C -9.823 1.9 -8.881 1.49 -7.9 1.34 c 0.15 -0.981 0.56 -1.922 1.242 -2.724 c 0.751 -0.882 1.617 -1.505 2.541 -1.874 c 1.727 -0.689 3.657 -0.472 5.435 0.714 c 1.406 0.938 2.236 2.169 2.486 3.538 c 0.35 1.921 -0.461 4.116 -2.504 6.178 c 0 0 9.031 9.046 9.682 9.659 c 1.57 1.479 3.408 1.416 4.617 0.022 c 1.167 -1.343 1.168 -2.792 -0.031 -4.157 c -1.05 -1.197 -2.496 -1.335 -3.925 -0.494 c -0.314 0.185 -0.697 0.216 -1.047 0.114 v 0 C 9.39 11.963 9.254 10.338 10.362 9.745 C 11.271 9.258 12.219 9.003 13.15 8.969 c 1.861 -0.066 3.659 0.754 4.961 2.408" stroke-linecap="round" />
</g>
	<g transform="matrix(2.4453 0 0 -2.4453 -61.84530000000001 62.5086)"  >
<path style="stroke: none; stroke-width: 1; stroke-dasharray: none; stroke-linecap: butt; stroke-dashoffset: 0; stroke-linejoin: miter; stroke-miterlimit: 4; fill: rgb(165,126,13); fill-rule: nonzero; opacity: 1;"  paint-order="stroke"  transform=" translate(3.2105633337624297, 12.450828817364258)" d="M 0 0 C 1.366 1.199 2.815 1.199 4.158 0.033 C 4.695 -0.434 5.029 -0.994 5.159 -1.596 C 4.31 -1.89 3.5 -2.384 2.792 -3.078 C 2.05 -3.806 1.32 -4.548 0.585 -5.286 C 0.38 -5.07 0.131 -4.803 -0.014 -4.627 C -1.368 -2.985 -1.392 -1.223 0 0 m 3.954 -8.655 c 0.738 0.734 1.481 1.464 2.208 2.207 c 0.694 0.707 1.188 1.518 1.483 2.367 c 0.601 -0.13 1.161 -0.465 1.628 -1.001 C 10.439 -6.426 10.44 -7.875 9.24 -9.24 C 8.018 -10.633 6.255 -10.608 4.613 -9.255 C 4.437 -9.11 4.17 -8.86 3.954 -8.655 m -22.065 -2.722 c -2.031 -2.578 -1.371 -5.822 1.16 -7.976 c 1.728 -1.47 4.101 -1.694 6.137 -0.702 c -0.993 -2.035 -0.769 -4.409 0.701 -6.136 c 2.154 -2.531 5.398 -3.191 7.976 -1.161 c 1.654 1.303 2.474 3.101 2.408 4.961 c -0.033 0.932 -0.288 1.88 -0.775 2.789 c -0.594 1.108 -2.218 0.972 -2.571 -0.235 v 0 c -0.103 -0.35 -0.072 -0.733 0.113 -1.047 c 0.841 -1.428 0.703 -2.874 -0.493 -3.924 c -1.365 -1.199 -2.815 -1.198 -4.158 -0.032 c -1.394 1.21 -1.457 3.047 0.023 4.618 c 0.613 0.651 9.659 9.682 9.659 9.682 c 2.062 -2.043 4.256 -2.855 6.177 -2.504 c 1.37 0.25 2.601 1.08 3.539 2.486 c 1.186 1.777 1.402 3.708 0.713 5.435 c -0.368 0.923 -0.992 1.79 -1.874 2.541 C 9.823 -1.9 8.881 -1.49 7.9 -1.34 C 7.75 -0.359 7.34 0.582 6.658 1.384 C 5.907 2.266 5.041 2.889 4.117 3.258 C 2.39 3.947 0.46 3.73 -1.318 2.544 C -2.724 1.606 -3.554 0.375 -3.804 -0.994 c -0.35 -1.921 0.461 -4.116 2.504 -6.178 c 0 0 -9.031 -9.046 -9.682 -9.659 c -1.57 -1.479 -3.408 -1.416 -4.617 -0.022 c -1.167 1.343 -1.168 2.792 0.031 4.157 c 1.05 1.197 2.496 1.335 3.925 0.494 c 0.314 -0.185 0.697 -0.216 1.047 -0.114 c 1.206 0.353 1.342 1.978 0.234 2.571 c -0.909 0.487 -1.857 0.742 -2.788 0.776 c -1.861 0.066 -3.659 -0.754 -4.961 -2.408" stroke-linecap="round" />
</g>
	<g transform="matrix(2.4453 0 0 -2.4453 60.52859999999998 62.5086)"  >
<path style="stroke: none; stroke-width: 1; stroke-dasharray: none; stroke-linecap: butt; stroke-dashoffset: 0; stroke-linejoin: miter; stroke-miterlimit: 4; fill: rgb(165,126,13); fill-rule: nonzero; opacity: 1;"  paint-order="stroke"  transform=" translate(-3.1963859367159255, 7.8236954199761115)" d="m 0 0 c -0.145 -0.176 -0.394 -0.443 -0.6 -0.659 c -0.734 0.738 -1.464 1.481 -2.207 2.208 c -0.707 0.694 -1.518 1.188 -2.366 1.483 c 0.129 0.601 0.464 1.161 1.001 1.628 c 1.343 1.166 2.792 1.167 4.158 -0.033 C 1.378 3.405 1.354 1.642 0 0 m -4.627 -4.627 c -1.643 -1.354 -3.405 -1.379 -4.628 0.014 c -1.199 1.366 -1.198 2.815 -0.032 4.158 c 0.466 0.537 1.027 0.871 1.628 1.001 c 0.294 -0.849 0.789 -1.659 1.482 -2.367 c 0.728 -0.742 1.471 -1.473 2.208 -2.207 c -0.216 -0.205 -0.483 -0.454 -0.658 -0.599 m 17.763 0.285 c -0.932 -0.033 -1.879 -0.288 -2.789 -0.776 c -1.107 -0.593 -0.971 -2.217 0.235 -2.57 c 0.35 -0.103 0.733 -0.072 1.047 0.113 c 1.428 0.841 2.875 0.703 3.925 -0.493 c 1.198 -1.365 1.198 -2.815 0.031 -4.158 c -1.21 -1.394 -3.047 -1.457 -4.617 0.022 c -0.651 0.614 -9.682 9.66 -9.682 9.66 C 3.328 -0.482 4.14 1.712 3.789 3.633 C 3.539 5.003 2.709 6.234 1.304 7.172 C -0.474 8.357 -2.405 8.574 -4.131 7.885 C -5.055 7.517 -5.921 6.893 -6.673 6.011 C -7.354 5.21 -7.765 4.268 -7.914 3.287 c -0.982 -0.15 -1.923 -0.56 -2.725 -1.242 c -0.882 -0.751 -1.505 -1.617 -1.873 -2.541 c -0.689 -1.727 -0.473 -3.657 0.713 -5.435 c 0.938 -1.406 2.169 -2.236 3.538 -2.486 c 1.921 -0.35 4.116 0.461 6.178 2.504 c 0 0 9.046 -9.031 9.659 -9.682 c 1.48 -1.57 1.416 -3.408 0.022 -4.617 c -1.342 -1.167 -2.792 -1.168 -4.157 0.031 c -1.196 1.05 -1.335 2.496 -0.494 3.925 c 0.185 0.314 0.216 0.697 0.114 1.047 v 0 c -0.353 1.206 -1.977 1.342 -2.571 0.234 c -0.487 -0.909 -0.742 -1.857 -0.775 -2.788 c -0.066 -1.861 0.753 -3.659 2.408 -4.961 c 2.577 -2.031 5.821 -1.371 7.975 1.16 c 1.471 1.728 1.694 4.101 0.702 6.137 c 2.036 -0.993 4.409 -0.769 6.136 0.701 c 2.531 2.154 3.192 5.398 1.161 7.976 c -1.303 1.654 -3.1 2.474 -4.961 2.408" stroke-linecap="round" />
</g>
</g>
<g transform="matrix(1.5745007680491552 0 0 1.5745007680491552 518.0819045429023 663.1497143897409)"  >
<path style="stroke: none; stroke-width: 1; stroke-dasharray: none; stroke-linecap: butt; stroke-dashoffset: 0; stroke-linejoin: miter; stroke-miterlimit: 4; fill: rgb(165,126,13); fill-rule: nonzero; opacity: 1;"  paint-order="stroke"  transform=" translate(-199.53000000000003, 14.449752439085795)" d="M 0.52 -18.56 L 0.52 -18.56 Q 0.52 -24.33 3.4 -28.71 Q 6.29 -33.1 11.54 -35.47 Q 16.8 -37.83 23.65 -37.83 L 23.65 -37.83 Q 27.98 -37.83 32.52 -37.14 Q 37.06 -36.44 39.41 -35.43 L 39.41 -35.43 L 38.9 -25.28 L 38.46 -25.28 Q 37.16 -30.25 33.42 -32.72 Q 29.68 -35.2 24.74 -35.2 L 24.74 -35.2 Q 19.1 -35.2 15.64 -30.54 Q 12.19 -25.88 12.19 -18.24 L 12.19 -18.24 Q 12.19 -10.9 15.5 -6.41 Q 18.81 -1.92 24.22 -1.92 L 24.22 -1.92 Q 27.41 -1.92 29.35 -3.47 Q 31.29 -5.02 31.29 -7.56 L 31.29 -7.56 L 31.29 -14.78 Q 31.29 -15.94 30.59 -16.58 Q 29.89 -17.21 28.6 -17.21 L 28.6 -17.21 L 27.74 -17.21 L 27.74 -17.73 L 45.55 -17.73 L 45.55 -17.21 L 44.74 -17.21 Q 43.45 -17.21 42.76 -16.59 Q 42.08 -15.97 42.1 -14.8 L 42.1 -14.8 L 42.1 -6.24 Q 42.13 -3.78 42.91 -1.32 Q 43.68 1.14 45.15 3.22 Q 46.61 5.31 48.69 6.79 Q 50.77 8.28 53.39 8.8 L 53.39 8.8 Q 54.53 9.03 55.74 9.03 L 55.74 9.03 Q 57.35 9.03 59.11 8.64 L 59.11 8.64 L 59.21 9.16 Q 55.61 10.74 52.07 11.08 L 52.07 11.08 Q 50.98 11.21 49.95 11.21 L 49.95 11.21 Q 47.62 11.21 45.6 10.66 L 45.6 10.66 Q 42.62 9.89 40.07 8.26 Q 37.52 6.63 35.66 4.35 Q 33.8 2.07 32.69 -0.67 L 32.69 -0.67 Q 28.03 0.75 23.01 0.75 L 23.01 0.75 Q 16.41 0.75 11.3 -1.66 Q 6.19 -4.06 3.35 -8.46 Q 0.52 -12.86 0.52 -18.56 Z M 53.92 -4.36 Q 48.06 -9.47 48.06 -18.56 Q 48.06 -27.64 53.92 -32.74 Q 59.78 -37.83 70.05 -37.83 Q 80.33 -37.83 86.2 -32.74 Q 92.08 -27.64 92.08 -18.56 Q 92.08 -9.47 86.2 -4.36 Q 80.33 0.75 70.05 0.75 Q 59.78 0.75 53.92 -4.36 Z M 62.47 -30.8 Q 59.75 -26.4 59.75 -18.56 Q 59.75 -10.71 62.47 -6.31 Q 65.19 -1.92 70.05 -1.92 Q 74.92 -1.92 77.65 -6.31 Q 80.38 -10.71 80.38 -18.56 Q 80.38 -26.4 77.65 -30.8 Q 74.92 -35.2 70.05 -35.2 Q 65.19 -35.2 62.47 -30.8 Z M 125.41 0 L 94.41 0 L 94.43 -0.52 L 95.1 -0.52 Q 96.5 -0.52 97.49 -1.5 Q 98.47 -2.48 98.5 -3.86 L 98.5 -3.86 L 98.5 -33.23 Q 98.47 -34.6 97.49 -35.58 Q 96.5 -36.57 95.1 -36.57 L 95.1 -36.57 L 94.43 -36.57 L 94.41 -37.11 L 113.43 -37.11 L 113.43 -36.57 L 112.75 -36.57 Q 111.36 -36.57 110.37 -35.58 Q 109.39 -34.6 109.36 -33.23 L 109.36 -33.23 L 109.36 -2.69 L 115.91 -2.69 Q 119.77 -2.69 122.72 -5.23 Q 125.67 -7.76 126.91 -12.27 L 126.91 -12.27 L 127.43 -12.27 L 125.41 0 Z M 149.04 0 L 128.95 0 L 128.98 -0.52 L 129.65 -0.52 Q 131.05 -0.52 132.03 -1.5 Q 133.02 -2.48 133.04 -3.86 L 133.04 -3.86 L 133.04 -33.54 Q 133.04 -34.81 132.02 -35.69 Q 131 -36.57 129.65 -36.57 L 129.65 -36.57 L 128.98 -36.57 L 128.98 -37.11 L 149.04 -37.08 Q 159 -37.08 164.59 -32.18 Q 170.18 -27.28 170.18 -18.53 Q 170.18 -9.78 164.59 -4.89 Q 159 0 149.04 0 L 149.04 0 Z M 143.91 -34.44 L 143.91 -2.67 L 147.98 -2.67 Q 152.94 -2.67 155.74 -6.86 Q 158.53 -11.05 158.53 -18.53 Q 158.53 -26.01 155.74 -30.23 Q 152.94 -34.44 147.98 -34.44 L 147.98 -34.44 L 143.91 -34.44 Z M 203.51 0 L 172.51 0 L 172.53 -0.52 L 173.21 -0.52 Q 174.6 -0.52 175.59 -1.5 Q 176.57 -2.48 176.6 -3.86 L 176.6 -3.86 L 176.6 -33.25 Q 176.55 -34.63 175.58 -35.6 Q 174.6 -36.57 173.21 -36.57 L 173.21 -36.57 L 172.53 -36.57 L 172.53 -37.11 L 195.98 -37.11 Q 197.64 -37.14 199.58 -37.43 Q 201.52 -37.73 202.3 -38.07 L 202.3 -38.07 L 202.3 -27.12 L 201.75 -27.15 L 201.75 -27.56 Q 201.75 -30.69 200.02 -32.5 Q 198.28 -34.32 195.15 -34.42 L 195.15 -34.42 L 187.47 -34.42 L 187.47 -19.62 L 193.24 -19.62 Q 195.75 -19.64 197.37 -21.27 Q 198.98 -22.9 198.98 -25.41 L 198.98 -25.41 L 198.98 -25.67 L 199.5 -25.67 L 199.5 -10.92 L 198.98 -10.92 L 198.98 -11.18 Q 198.98 -13.66 197.4 -15.28 Q 195.83 -16.9 193.32 -16.98 L 193.32 -16.98 L 187.47 -16.98 L 187.47 -2.69 L 194.01 -2.69 Q 197.87 -2.69 200.82 -5.23 Q 203.77 -7.76 205.01 -12.27 L 205.01 -12.27 L 205.53 -12.27 L 203.51 0 Z M 226.65 0 L 207.26 0 L 207.26 -0.52 L 208.25 -0.52 Q 209.59 -0.52 210.54 -1.45 Q 211.48 -2.38 211.51 -3.73 L 211.51 -3.73 L 211.51 -31.26 Q 211.51 -33.1 211.34 -34.76 Q 211.17 -36.41 210.99 -37.16 L 210.99 -37.16 L 210.81 -37.89 L 211.35 -37.89 L 236.71 -15.32 L 236.71 -33.36 Q 236.69 -34.7 235.73 -35.64 Q 234.77 -36.57 233.43 -36.57 L 233.43 -36.57 L 232.47 -36.57 L 232.44 -37.11 L 251.85 -37.11 L 251.85 -36.57 L 250.87 -36.57 Q 249.52 -36.57 248.58 -35.65 Q 247.64 -34.73 247.58 -33.41 L 247.58 -33.41 L 247.58 -6.03 Q 247.58 -4.09 247.75 -2.39 Q 247.92 -0.7 248.1 0.03 L 248.1 0.03 L 248.28 0.75 L 247.82 0.75 L 222.4 -21.84 L 222.4 -3.75 Q 222.43 -2.41 223.37 -1.46 Q 224.32 -0.52 225.66 -0.52 L 225.66 -0.52 L 226.65 -0.52 L 226.65 0 Z M 275.84 0 L 264.02 0 L 264.02 -0.54 L 264.51 -0.54 Q 265.72 -0.54 266.92 -1.26 Q 268.11 -1.97 268.91 -3.39 L 268.91 -3.39 L 279.73 -27.12 Q 279.26 -28.39 278.81 -29.44 Q 278.35 -30.49 277.8 -31.64 Q 277.24 -32.79 276.65 -33.67 Q 276.05 -34.55 275.35 -35.36 Q 274.65 -36.18 273.86 -36.7 Q 273.07 -37.21 272.19 -37.52 L 272.19 -37.52 Q 271.44 -37.78 270.59 -37.76 L 270.59 -37.76 Q 270.43 -37.76 270.28 -37.76 L 270.28 -37.76 Q 269.24 -37.71 268.16 -37.29 L 268.16 -37.29 L 268.05 -37.83 Q 271.7 -40.03 275.09 -40.32 L 275.09 -40.32 Q 275.64 -40.37 276.15 -40.37 L 276.15 -40.37 Q 278.92 -40.37 281.3 -39.08 L 281.3 -39.08 Q 284.15 -37.58 286.49 -34.7 Q 288.83 -31.83 290.67 -27.64 L 290.67 -27.64 L 299.16 -8.23 Q 299.81 -6.75 300.34 -5.6 Q 300.87 -4.45 301.61 -2.96 Q 302.34 -1.48 303.03 -0.34 Q 303.71 0.8 304.58 2.1 Q 305.45 3.39 306.32 4.33 Q 307.18 5.28 308.19 6.2 Q 309.2 7.12 310.29 7.67 Q 311.38 8.23 312.57 8.59 L 312.57 8.59 Q 313.73 8.95 315.02 8.95 L 315.02 8.95 Q 315.05 8.95 315.1 8.95 L 315.1 8.95 Q 316.45 8.95 317.87 8.54 L 317.87 8.54 L 317.97 9.06 Q 315.05 10.77 311.74 11.28 L 311.74 11.28 Q 310.47 11.46 309.2 11.46 L 309.2 11.46 Q 307.16 11.49 305.09 10.97 L 305.09 10.97 Q 301.75 10.14 298.66 8.16 Q 295.56 6.19 292.85 2.73 Q 290.13 -0.72 288.27 -5.28 L 288.27 -5.28 L 286.82 -8.8 L 275.48 -8.8 L 273.36 -3.86 Q 273.05 -3.16 273.05 -2.59 L 273.05 -2.59 Q 273.02 -1.94 273.44 -1.45 L 273.44 -1.45 Q 274.16 -0.52 275.38 -0.52 L 275.38 -0.52 L 275.84 -0.52 L 275.84 0 Z M 281.41 -22.36 L 276.65 -11.44 L 285.75 -11.44 L 282.42 -19.64 Q 281.98 -20.68 281.41 -22.36 L 281.41 -22.36 Z M 315.36 0 L 301.57 0 L 301.57 -0.54 L 302.32 -0.54 Q 305.22 -0.54 307.54 -3.55 L 307.54 -3.55 L 318.1 -17.96 L 307.98 -33.46 Q 307.08 -34.78 305.63 -35.67 Q 304.18 -36.57 302.63 -36.57 L 302.63 -36.57 L 301.9 -36.57 L 301.9 -37.11 L 323.2 -37.11 L 323.2 -36.57 L 322.53 -36.57 Q 321.39 -36.54 320.74 -35.45 L 320.74 -35.45 Q 320.43 -34.91 320.42 -34.37 Q 320.41 -33.82 320.74 -33.28 L 320.74 -33.28 L 326.9 -23.89 L 332.93 -33.28 Q 333.24 -33.8 333.24 -34.34 Q 333.24 -34.88 332.88 -35.45 L 332.88 -35.45 Q 332.18 -36.54 331.04 -36.57 L 331.04 -36.57 L 330.4 -36.57 L 330.37 -37.11 L 344.09 -37.11 L 344.09 -36.57 L 343.36 -36.57 Q 341.78 -36.57 340.41 -35.7 Q 339.04 -34.83 338.08 -33.49 L 338.08 -33.49 L 329.23 -20.29 L 340.15 -3.62 Q 341.06 -2.3 342.51 -1.41 Q 343.96 -0.52 345.54 -0.52 L 345.54 -0.52 L 346.26 -0.52 L 346.26 0 L 324.86 0 L 324.86 -0.52 L 325.53 -0.52 Q 326.67 -0.52 327.32 -1.6 L 327.32 -1.6 Q 327.63 -2.15 327.64 -2.7 Q 327.65 -3.26 327.32 -3.8 L 327.32 -3.8 L 320.35 -14.49 L 312.82 -3.83 Q 312.46 -3.29 312.46 -2.72 L 312.46 -2.72 Q 312.44 -2.17 312.8 -1.66 L 312.8 -1.66 Q 313.52 -0.57 314.69 -0.54 L 314.69 -0.54 L 315.36 -0.54 L 315.36 0 Z M 364.89 0 L 345.87 0 L 345.9 -0.52 L 346.57 -0.52 Q 347.97 -0.52 348.95 -1.5 Q 349.93 -2.48 349.96 -3.86 L 349.96 -3.86 L 349.96 -33.25 Q 349.91 -34.63 348.93 -35.6 Q 347.94 -36.57 346.57 -36.57 L 346.57 -36.57 L 345.9 -36.57 L 345.87 -37.11 L 364.89 -37.11 L 364.89 -36.57 L 364.22 -36.57 Q 362.85 -36.57 361.85 -35.61 Q 360.86 -34.65 360.83 -33.28 L 360.83 -33.28 L 360.83 -3.86 Q 360.86 -2.48 361.84 -1.5 Q 362.82 -0.52 364.22 -0.52 L 364.22 -0.52 L 364.89 -0.52 L 364.89 0 Z M 369.06 -7.82 L 369.06 -7.82 Q 369.63 -10.92 371 -12.73 L 371 -12.73 L 371.47 -12.73 Q 371.44 -12.42 371.44 -12.11 L 371.44 -12.11 Q 371.44 -10.35 372.09 -8.7 L 372.09 -8.7 Q 372.84 -6.75 374.29 -5.24 Q 375.74 -3.73 378.01 -2.82 Q 380.29 -1.92 382.98 -1.92 L 382.98 -1.92 Q 386.6 -1.92 388.53 -3.42 Q 390.46 -4.92 390.46 -7.12 L 390.46 -7.12 Q 390.46 -8.8 389.14 -10.18 Q 387.82 -11.57 384.82 -12.94 L 384.82 -12.94 L 376.18 -16.95 Q 372.55 -18.63 370.87 -21.58 L 370.87 -21.58 Q 369.58 -23.89 369.58 -26.68 L 369.58 -26.68 Q 369.58 -27.51 369.68 -28.36 L 369.68 -28.36 Q 370.25 -32.94 373.46 -35.39 Q 376.67 -37.83 382.02 -37.83 L 382.02 -37.83 Q 385.6 -37.83 390.98 -37.29 L 390.98 -37.29 L 395.09 -37.29 L 393.95 -28.67 L 393.44 -28.67 Q 393.41 -31.6 391.15 -33.4 Q 388.88 -35.2 385 -35.2 L 385 -35.2 Q 381.79 -35.2 379.86 -33.97 Q 377.94 -32.74 377.78 -30.74 L 377.78 -30.74 Q 377.78 -30.59 377.78 -30.41 L 377.78 -30.41 Q 377.78 -28.93 378.87 -27.95 L 378.87 -27.95 Q 380.06 -26.86 382.49 -25.78 L 382.49 -25.78 L 392.4 -21.22 Q 395.51 -19.8 397.14 -17.21 L 397.14 -17.21 Q 398.54 -14.98 398.54 -11.9 L 398.54 -11.9 Q 398.54 -11.41 398.51 -10.92 L 398.51 -10.92 Q 398.12 -5.28 393.77 -2.26 Q 389.43 0.75 381.87 0.75 L 381.87 0.75 Q 377.44 0.75 374.11 -0.22 Q 370.77 -1.19 369.32 -2.69 L 369.32 -2.69 Q 368.83 -3.88 368.83 -5.46 L 368.83 -5.46 Q 368.83 -6.55 369.06 -7.82 Z" stroke-linecap="round" />
</g>
</svg>